<svg width="2191" height="2165" viewBox="0 0 2191 2165" fill="none" xmlns="http://www.w3.org/2000/svg">
<g clip-path="url(#clip0_3_15)">
<g opacity="0.5">
<path d="M524.946 955.672C426.309 833.886 352.427 798.243 256.923 806.689C161.419 815.135 153.956 900.692 135.372 981.854C110.922 1088.64 149.479 1162.92 214.742 1250.9C278.684 1337.1 336.075 1407.8 443.317 1403.5C532.008 1399.94 615.228 1337.47 637.317 1285.07C659.405 1232.66 623.584 1077.46 524.946 955.672Z" fill="#8AD4EC"/>
<path d="M1512.09 1003.09C1495.73 1158.96 1535.98 1228.94 1609.48 1290.5C1682.99 1352.06 1751.65 1313.97 1822.18 1269.72C1914.98 1211.5 1944.03 1119.02 1960.1 1010.66C1975.84 904.492 1957.15 778.816 1878.27 706.028C1813.04 645.83 1777.69 672.419 1725.02 693.856C1672.34 715.294 1528.46 847.229 1512.09 1003.09Z" fill="#8AD4EC"/>
<path d="M551.991 1816.17C535.622 1972.03 553.676 2000.46 632.35 2046C711.025 2091.54 761.064 2056.06 888.726 2002.74C1006.67 1953.49 1059.13 1879.68 1177.95 1859.63C1354.45 1829.85 1508.36 1909.81 1653.48 1862.04C1730.8 1836.59 1748.93 1786.32 1754.52 1748.65C1763.03 1691.27 1656.77 1475.22 1540.33 1350.74C1441.33 1244.91 1315.09 1154.72 1274.79 1126.29C1200.54 1073.92 1131.94 1065.75 1035.17 1085.59C943.275 1104.43 907.86 1133.44 838.006 1182.24C768.152 1231.05 568.359 1660.3 551.991 1816.17Z" fill="#8AD4EC"/>
<path d="M938.089 468.139C896.607 316.86 856.547 231.517 702.962 204.585C549.378 177.653 530.349 259.49 491.392 333.077C440.138 429.892 479.209 544.901 519.476 646.777C558.929 746.591 665.417 876.506 770.118 900.106C856.709 919.624 895.35 830.489 930.249 785.586C965.149 740.683 979.572 619.417 938.089 468.139Z" fill="#8AD4EC"/>
<path d="M1514.3 421.114C1513.38 264.254 1519.77 186.302 1378.39 120.537C1237.01 54.7716 1176.03 144.351 1119.36 205.347C1044.79 285.598 1052.77 406.8 1065.29 515.627C1077.57 622.251 1093.44 787.229 1188.47 837.123C1267.06 878.387 1357.21 802.89 1402.54 768.55C1447.88 734.21 1515.21 577.974 1514.3 421.114Z" fill="#8AD4EC"/>
</g>
<path d="M594.246 984.644C495.609 862.858 421.727 827.215 326.223 835.661C230.719 844.107 223.256 929.664 204.672 1010.83C180.222 1117.61 218.78 1191.89 284.042 1279.87C347.984 1366.07 405.375 1436.77 512.617 1432.47C601.308 1428.91 684.528 1366.44 706.617 1314.04C728.705 1261.63 692.884 1106.43 594.246 984.644Z" stroke="#8D91FA" stroke-width="15"/>
<path d="M1581.39 1032.06C1565.03 1187.93 1605.28 1257.91 1678.78 1319.47C1752.29 1381.03 1820.95 1342.94 1891.48 1298.69C1984.28 1240.47 2013.33 1147.99 2029.4 1039.63C2045.14 933.464 2026.45 807.789 1947.57 735C1882.34 674.802 1846.99 701.391 1794.32 722.828C1741.64 744.266 1597.76 876.202 1581.39 1032.06Z" stroke="#8D91FA" stroke-width="15"/>
<path d="M621.291 1845.14C604.922 2001 622.976 2029.43 701.65 2074.97C780.325 2120.52 830.364 2085.03 958.026 2031.71C1075.97 1982.46 1128.43 1908.65 1247.25 1888.6C1423.75 1858.82 1577.66 1938.78 1722.78 1891.01C1800.1 1865.56 1818.23 1815.29 1823.82 1777.62C1832.33 1720.24 1726.07 1504.19 1609.63 1379.71C1510.63 1273.88 1384.39 1183.7 1344.09 1155.27C1269.84 1102.89 1201.24 1094.73 1104.47 1114.56C1012.58 1133.41 977.16 1162.41 907.306 1211.22C837.452 1260.02 637.66 1689.28 621.291 1845.14Z" stroke="#8D91FA" stroke-width="15"/>
<path d="M1007.39 497.111C965.907 345.833 925.847 260.49 772.262 233.557C618.678 206.625 599.649 288.463 560.692 362.049C509.438 458.864 548.509 573.873 588.776 675.749C628.229 775.563 734.717 905.479 839.418 929.078C926.009 948.596 964.65 859.461 999.549 814.558C1034.45 769.655 1048.87 648.389 1007.39 497.111Z" stroke="#8D91FA" stroke-width="15"/>
<path d="M1583.6 450.086C1582.68 293.226 1589.07 215.274 1447.69 149.509C1306.31 83.7437 1245.33 173.323 1188.66 234.319C1114.09 314.57 1122.07 435.772 1134.59 544.599C1146.87 651.223 1162.74 816.201 1257.77 866.095C1336.36 907.359 1426.51 831.862 1471.84 797.522C1517.18 763.182 1584.51 606.946 1583.6 450.086Z" stroke="#8D91FA" stroke-width="15"/>
</g>
<defs>
<clipPath id="clip0_3_15">
<rect width="2190.68" height="2164.28" fill="white"/>
</clipPath>
</defs>
</svg>
