<svg width="3865" height="1341" viewBox="0 0 3865 1341" fill="none" xmlns="http://www.w3.org/2000/svg">
<path d="M633.6 220.8C626.133 243.733 611.733 261.333 590.4 273.6C569.067 285.867 542.4 292 510.4 292C484.8 292 458.133 289.867 430.4 285.6C402.667 280.8 374.933 274.933 347.2 268C340.267 286.133 335.2 306.133 332 328C329.333 349.333 325.867 372.533 321.6 397.6C315.733 432.8 308 468.533 298.4 504.8C288.8 541.067 276 574.133 260 604C244 633.867 223.2 656.533 197.6 672C186.4 678.4 175.733 685.067 165.6 692C156 698.933 145.067 704.8 132.8 709.6C121.067 714.4 105.867 716.8 87.2 716.8C63.2 716.8 45.0666 712.267 32.8 703.2C21.0666 694.667 13.0666 682.4 8.79995 666.4C5.06662 650.4 3.19995 631.467 3.19995 609.6C3.19995 605.867 3.99995 598.933 5.59995 588.8C7.73328 578.667 9.86662 568.533 12 558.4C14.6666 548.267 17.0666 541.333 19.2 537.6C22.9333 529.067 29.3333 518.4 38.4 505.6C48 492.8 58.9333 480 71.2 467.2C83.4666 454.4 96 443.733 108.8 435.2C121.6 426.667 133.333 422.4 144 422.4C148.267 422.4 153.067 425.867 158.4 432.8C164.267 439.2 169.333 446.667 173.6 455.2C177.867 463.733 180 470.933 180 476.8C180 478.933 178.933 484 176.8 492C175.2 499.467 171.733 508 166.4 517.6C161.067 526.667 153.067 534.667 142.4 541.6C140.267 542.133 138.133 542.4 136 542.4C134.4 542.4 132.533 542.4 130.4 542.4C115.467 542.4 108 539.467 108 533.6C108 528.8 112.8 524.533 122.4 520.8C132 516.533 139.2 514.133 144 513.6C149.333 513.067 152.8 510.933 154.4 507.2C156 502.933 156.8 493.867 156.8 480C156.8 477.333 156 473.333 154.4 468C153.333 462.667 151.733 457.6 149.6 452.8C148 448 146.133 445.6 144 445.6C134.933 445.6 125.867 449.6 116.8 457.6C108.267 465.6 100.267 475.467 92.8 487.2C85.3333 498.933 78.6666 510.667 72.8 522.4C66.9333 533.6 62.6666 542.933 60 550.4C58.9333 553.6 57.0666 558.933 54.4 566.4C51.7333 573.333 49.3333 580.533 47.2 588C45.0666 594.933 44 600.267 44 604C44 610.933 43.7333 618.133 43.2 625.6C43.2 632.533 43.2 638.933 43.2 644.8C43.2 659.2 45.6 670.933 50.4 680C55.7333 689.067 68 693.6 87.2 693.6C103.733 693.6 117.333 690.667 128 684.8C139.2 678.4 148.8 670.933 156.8 662.4C165.333 653.333 173.6 644.533 181.6 636C214.133 602.933 239.467 566.667 257.6 527.2C276.267 487.2 289.6 442.667 297.6 393.6C301.867 367.467 306.4 344 311.2 323.2C316.533 301.867 323.467 282.133 332 264C304.8 256.533 278.667 249.067 253.6 241.6C229.067 233.6 206.667 226.667 186.4 220.8C175.2 217.067 165.6 213.6 157.6 210.4C150.133 206.667 138.4 204.8 122.4 204.8C110.667 204.8 98.9333 206.4 87.2 209.6C76 212.267 70.4 219.2 70.4 230.4C70.4 233.6 70.1333 237.333 69.6 241.6C69.6 245.867 69.6 250.133 69.6 254.4C69.6 264.533 70.9333 274.933 73.6 285.6C76.2666 295.733 81.8666 304.533 90.4 312C98.9333 318.933 112.267 322.933 130.4 324C137.867 324.533 143.733 322.933 148 319.2C152.8 315.467 156.8 311.733 160 308C162.133 302.667 166.133 300 172 300C177.333 300 180 303.733 180 311.2C180 312.8 179.733 314.4 179.2 316C179.2 317.6 178.933 319.467 178.4 321.6C173.067 328 166.667 334.133 159.2 340C152.267 345.333 142.667 348 130.4 348C121.333 348 110.933 346.4 99.2 343.2C88 339.467 77.0666 333.067 66.4 324C55.7333 314.4 47.2 301.333 40.8 284.8C34.9333 267.733 32.8 246.133 34.4 220C35.4666 209.333 39.4666 199.2 46.4 189.6C53.8666 180 62.9333 172.267 73.6 166.4C84.8 160 95.7333 156.8 106.4 156.8C114.933 156.8 125.6 158.133 138.4 160.8C151.2 163.467 164.267 166.667 177.6 170.4C191.467 174.133 204 177.867 215.2 181.6C226.933 185.333 236 188.267 242.4 190.4C259.467 195.733 276.8 202.4 294.4 210.4C312 217.867 330.133 225.333 348.8 232.8C349.867 231.2 350.933 229.6 352 228C353.6 226.4 354.933 224.533 356 222.4C361.867 214.4 367.733 210.4 373.6 210.4C376.267 210.4 377.6 211.733 377.6 214.4C377.6 219.2 373.867 225.6 366.4 233.6C365.867 234.133 365.333 234.933 364.8 236C364.267 236.533 363.467 237.333 362.4 238.4C386.933 248 412 256.267 437.6 263.2C463.2 270.133 489.867 273.6 517.6 273.6C568.8 273.6 600.8 255.733 613.6 220C614.133 206.133 617.067 199.2 622.4 199.2C625.067 199.2 627.467 201.333 629.6 205.6C632.267 209.867 633.6 214.933 633.6 220.8Z" fill="#8AD4EC"/>
<path d="M572.194 264.8C574.86 266.933 576.46 270.667 576.994 276C578.06 281.333 578.594 286.933 578.594 292.8C578.594 299.733 577.794 306.667 576.194 313.6C575.127 320.533 573.26 325.333 570.594 328C567.394 331.2 563.66 332.8 559.394 332.8C555.66 332.8 551.927 332 548.194 330.4C544.46 328.8 540.46 326.933 536.194 324.8C528.727 321.6 524.994 313.867 524.994 301.6C524.994 295.733 526.327 289.6 528.994 283.2C531.66 276.8 535.927 270.667 541.794 264.8C546.06 260.533 551.127 258.4 556.994 258.4C562.86 258.4 567.927 260.533 572.194 264.8ZM535.394 600.8C538.594 597.6 540.194 598.133 540.194 602.4C540.194 605.067 539.394 608.533 537.794 612.8C536.727 617.067 535.394 620.267 533.794 622.4C528.46 629.867 522.06 638.133 514.594 647.2C507.66 656.267 499.394 664 489.794 670.4C480.194 676.267 468.727 679.2 455.394 679.2C435.66 679.2 422.06 674.667 414.594 665.6C407.127 656.533 403.394 645.6 403.394 632.8C403.394 626.933 403.927 621.067 404.994 615.2C406.06 609.333 407.394 603.467 408.994 597.6C403.66 607.2 395.394 618.4 384.194 631.2C372.994 643.467 362.594 653.333 352.994 660.8C350.86 662.4 348.727 663.2 346.594 663.2C343.394 663.2 341.794 661.333 341.794 657.6C341.794 653.333 343.394 649.6 346.594 646.4C368.994 622.933 386.06 604 397.794 589.6C409.527 574.667 418.594 562.133 424.994 552C431.394 541.867 437.527 532.533 443.394 524C448.194 508.533 452.46 493.6 456.194 479.2C460.46 464.267 466.86 449.067 475.394 433.6C478.06 428.8 483.394 426.4 491.394 426.4C496.727 426.4 501.527 427.733 505.794 430.4C510.06 433.067 512.194 437.6 512.194 444C512.194 447.2 511.394 450.933 509.794 455.2C503.927 471.733 497.527 485.867 490.594 497.6C484.194 508.8 475.66 523.2 464.994 540.8C453.794 558.933 444.727 576.533 437.794 593.6C431.394 610.667 428.194 625.067 428.194 636.8C428.194 644.267 429.794 650.4 432.994 655.2C436.727 660 442.06 662.4 448.994 662.4C463.927 662.933 475.394 660.533 483.394 655.2C491.394 649.333 498.06 643.733 503.394 638.4C510.327 630.933 516.194 624 520.994 617.6C526.327 611.2 531.127 605.6 535.394 600.8Z" fill="#8AD4EC"/>
<path d="M702.25 590.4C695.317 602.133 686.517 614.933 675.85 628.8C665.183 642.133 653.983 653.6 642.25 663.2C631.05 672.8 620.383 677.6 610.25 677.6C593.717 677.6 580.65 676.8 571.05 675.2C561.983 673.067 554.517 670.133 548.65 666.4C538.517 659.467 530.25 650.4 523.85 639.2C517.45 628 513.717 616.533 512.65 604.8C512.117 601.6 511.85 598.4 511.85 595.2C511.85 592 511.85 589.067 511.85 586.4C511.85 554.933 517.983 527.2 530.25 503.2C542.517 479.2 559.85 464.8 582.25 460C589.183 458.933 594.517 461.867 598.25 468.8C601.983 475.2 603.85 484 603.85 495.2C603.85 512.267 599.317 530.667 590.25 550.4C586.517 558.4 582.517 566.133 578.25 573.6C574.517 580.533 571.317 586.133 568.65 590.4C561.717 600.533 556.383 607.467 552.65 611.2C549.45 614.4 547.85 617.6 547.85 620.8C547.85 629.333 553.183 637.6 563.85 645.6C574.517 653.6 591.05 657.6 613.45 657.6C621.983 657.6 630.783 653.867 639.85 646.4C648.917 638.933 657.717 629.6 666.25 618.4C675.317 607.2 683.317 596 690.25 584.8C693.45 579.467 696.383 576.8 699.05 576.8C702.25 576.8 703.85 579.2 703.85 584C703.85 586.133 703.317 588.267 702.25 590.4ZM582.25 489.6C580.117 486.4 575.583 487.2 568.65 492C562.25 496.267 556.383 506.4 551.05 522.4C547.317 534.133 545.45 547.733 545.45 563.2C545.45 567.467 545.45 571.733 545.45 576C545.983 580.267 546.517 584.533 547.05 588.8C556.117 573.333 562.517 561.867 566.25 554.4C570.517 546.4 573.717 538.133 575.85 529.6C576.917 525.333 578.517 520 580.65 513.6C583.317 507.2 584.65 501.6 584.65 496.8C584.65 493.6 583.85 491.2 582.25 489.6Z" fill="#8AD4EC"/>
<path d="M841.962 644.8C844.096 642.667 847.029 641.6 850.762 641.6C854.496 641.6 856.362 643.2 856.362 646.4C856.362 650.133 852.096 656 843.562 664C835.029 672 825.696 678.4 815.562 683.2C805.429 688 795.829 691.467 786.762 693.6C782.496 694.133 776.629 692.533 769.162 688.8C762.229 685.6 757.962 682.133 756.362 678.4C754.229 673.6 752.629 668.267 751.562 662.4C750.496 656 749.962 649.333 749.962 642.4C749.962 625.867 751.829 608.8 755.562 591.2C759.296 573.6 762.762 558.4 765.962 545.6C759.562 547.733 752.362 548.8 744.362 548.8C736.896 548.8 730.229 549.333 724.362 550.4C720.629 555.733 717.429 561.867 714.762 568.8C712.096 575.2 708.362 582.4 703.562 590.4C695.029 604.267 685.429 618.133 674.762 632C664.629 645.333 654.229 656.267 643.562 664.8C632.896 673.333 622.496 677.6 612.362 677.6C605.429 677.6 601.962 675.733 601.962 672C601.962 668.267 606.496 664.8 615.562 661.6C628.362 656.8 641.429 646.667 654.762 631.2C668.096 615.733 680.096 599.733 690.762 583.2C696.096 575.2 699.562 568 701.162 561.6C702.762 554.667 703.562 549.333 703.562 545.6C703.562 545.6 701.162 542.933 696.362 537.6C692.096 531.733 689.962 526.133 689.962 520.8C689.962 509.067 693.696 498.4 701.162 488.8C709.162 479.2 717.429 475.733 725.962 478.4C731.829 480 735.562 482.667 737.162 486.4C739.296 490.133 740.362 494.133 740.362 498.4C740.362 503.2 739.562 508.267 737.962 513.6C736.362 518.4 734.762 522.667 733.162 526.4C734.762 528.533 738.229 529.6 743.562 529.6C751.562 529.6 760.362 528 769.962 524.8C776.896 514.667 783.562 506.667 789.962 500.8C796.362 494.933 802.229 492.533 807.562 493.6C811.296 494.133 814.762 495.467 817.962 497.6C821.162 499.733 822.762 503.733 822.762 509.6C822.762 514.4 820.362 521.6 815.562 531.2C807.562 545.6 800.096 561.333 793.162 578.4C786.229 594.933 780.896 610.133 777.162 624C773.429 637.333 771.829 646.667 772.362 652C773.429 658.933 775.296 663.467 777.962 665.6C781.162 667.733 784.629 668.8 788.362 668.8C791.029 668.8 793.696 668.533 796.362 668C799.562 666.933 802.496 666.133 805.162 665.6C813.162 662.933 819.829 660 825.162 656.8C830.496 653.6 836.096 649.6 841.962 644.8ZM722.762 509.6C722.762 504.8 721.162 501.333 717.962 499.2C717.429 498.667 716.629 498.4 715.562 498.4C712.896 498.4 710.496 500.267 708.362 504C706.229 507.2 705.162 510.4 705.162 513.6C705.162 516.267 705.429 519.467 705.962 523.2C707.029 526.4 708.896 527.2 711.562 525.6C714.229 524 716.629 521.867 718.762 519.2C721.429 516.533 722.762 513.333 722.762 509.6Z" fill="#8AD4EC"/>
<path d="M1134.96 645.6C1125.36 659.467 1114.7 670.133 1102.96 677.6C1091.76 684.533 1081.1 688 1070.96 688C1060.83 688 1052.56 684.533 1046.16 677.6C1038.7 664.8 1033.36 651.733 1030.16 638.4C1027.5 624.533 1025.1 606.667 1022.96 584.8C1021.36 562.933 1017.9 533.6 1012.56 496.8C1012.56 496.8 1010.96 494.933 1007.76 491.2C1004.56 486.933 1000.83 484.8 996.562 484.8C993.896 484.8 990.962 486.4 987.762 489.6C984.562 492.267 981.362 497.6 978.162 505.6C970.162 525.867 963.762 546.933 958.962 568.8C954.696 590.667 950.696 610.933 946.962 629.6C943.229 648.267 938.696 662.933 933.362 673.6C929.629 681.067 924.829 684.8 918.962 684.8C914.162 684.8 909.629 682.4 905.362 677.6C905.362 677.6 905.629 672.8 906.162 663.2C907.229 653.067 908.562 640.8 910.162 626.4C911.762 611.467 913.096 597.067 914.162 583.2C913.096 583.733 910.162 586.933 905.362 592.8C900.562 598.133 895.229 603.467 889.362 608.8C883.496 613.6 878.162 615.733 873.362 615.2C870.162 611.467 871.762 605.867 878.162 598.4C884.562 590.4 891.762 581.6 899.762 572C908.296 561.867 914.162 552 917.362 542.4C924.829 520 929.896 496 932.562 470.4C935.762 444.8 939.229 420.533 942.962 397.6C950.962 348 958.962 304.533 966.962 267.2C975.496 229.867 985.629 201.067 997.362 180.8C1009.1 160 1024.03 149.6 1042.16 149.6C1049.63 149.6 1055.5 152.533 1059.76 158.4C1064.03 163.733 1066.16 173.867 1066.16 188.8C1066.16 190.933 1066.16 193.6 1066.16 196.8C1066.16 200 1065.9 203.2 1065.36 206.4C1062.16 242.133 1055.5 281.6 1045.36 324.8C1035.23 367.467 1017.1 413.867 990.962 464C996.829 462.4 1002.7 461.6 1008.56 461.6C1019.23 461.6 1029.1 463.467 1038.16 467.2C1047.23 470.4 1053.36 474.133 1056.56 478.4C1059.76 482.667 1061.9 487.467 1062.96 492.8C1064.03 498.133 1064.56 504.267 1064.56 511.2C1064.56 524.533 1062.96 541.067 1059.76 560.8C1057.1 580.533 1055.76 603.733 1055.76 630.4C1055.76 639.467 1058.7 646.4 1064.56 651.2C1070.96 655.467 1078.43 657.6 1086.96 657.6C1094.43 657.6 1101.63 656 1108.56 652.8C1115.5 649.6 1121.1 645.067 1125.36 639.2C1125.9 638.133 1127.5 637.6 1130.16 637.6C1131.76 637.6 1133.1 638.4 1134.16 640C1135.76 641.067 1136.03 642.933 1134.96 645.6ZM1046.16 182.4C1046.16 177.6 1045.1 175.2 1042.96 175.2C1039.76 175.2 1034.7 179.733 1027.76 188.8C1021.36 197.333 1014.96 208.533 1008.56 222.4C1002.16 236.267 996.829 250.933 992.562 266.4C986.162 290.933 980.829 313.067 976.562 332.8C972.296 352 968.829 374.933 966.162 401.6C965.629 409.6 965.096 418.667 964.562 428.8C964.029 438.4 963.496 446.667 962.962 453.6C962.962 460.533 962.962 464 962.962 464C970.962 451.2 979.496 438.133 988.562 424.8C997.629 411.467 1005.1 395.733 1010.96 377.6C1018.96 354.133 1025.36 329.867 1030.16 304.8C1035.5 279.2 1039.5 255.467 1042.16 233.6C1044.83 211.733 1046.16 194.667 1046.16 182.4Z" fill="#8AD4EC"/>
<path d="M1324.91 590.4C1317.97 602.133 1309.17 614.933 1298.51 628.8C1287.84 642.133 1276.64 653.6 1264.91 663.2C1253.71 672.8 1243.04 677.6 1232.91 677.6C1216.37 677.6 1203.31 676.8 1193.71 675.2C1184.64 673.067 1177.17 670.133 1171.31 666.4C1161.17 659.467 1152.91 650.4 1146.51 639.2C1140.11 628 1136.37 616.533 1135.31 604.8C1134.77 601.6 1134.51 598.4 1134.51 595.2C1134.51 592 1134.51 589.067 1134.51 586.4C1134.51 554.933 1140.64 527.2 1152.91 503.2C1165.17 479.2 1182.51 464.8 1204.91 460C1211.84 458.933 1217.17 461.867 1220.91 468.8C1224.64 475.2 1226.51 484 1226.51 495.2C1226.51 512.267 1221.97 530.667 1212.91 550.4C1209.17 558.4 1205.17 566.133 1200.91 573.6C1197.17 580.533 1193.97 586.133 1191.31 590.4C1184.37 600.533 1179.04 607.467 1175.31 611.2C1172.11 614.4 1170.51 617.6 1170.51 620.8C1170.51 629.333 1175.84 637.6 1186.51 645.6C1197.17 653.6 1213.71 657.6 1236.11 657.6C1244.64 657.6 1253.44 653.867 1262.51 646.4C1271.57 638.933 1280.37 629.6 1288.91 618.4C1297.97 607.2 1305.97 596 1312.91 584.8C1316.11 579.467 1319.04 576.8 1321.71 576.8C1324.91 576.8 1326.51 579.2 1326.51 584C1326.51 586.133 1325.97 588.267 1324.91 590.4ZM1204.91 489.6C1202.77 486.4 1198.24 487.2 1191.31 492C1184.91 496.267 1179.04 506.4 1173.71 522.4C1169.97 534.133 1168.11 547.733 1168.11 563.2C1168.11 567.467 1168.11 571.733 1168.11 576C1168.64 580.267 1169.17 584.533 1169.71 588.8C1178.77 573.333 1185.17 561.867 1188.91 554.4C1193.17 546.4 1196.37 538.133 1198.51 529.6C1199.57 525.333 1201.17 520 1203.31 513.6C1205.97 507.2 1207.31 501.6 1207.31 496.8C1207.31 493.6 1206.51 491.2 1204.91 489.6Z" fill="#8AD4EC"/>
<path d="M1452.62 364.8C1448.89 364.8 1445.15 364.267 1441.42 363.2C1438.22 361.6 1435.02 359.733 1431.82 357.6C1424.89 354.4 1421.42 347.467 1421.42 336.8C1421.42 332 1422.49 326.667 1424.62 320.8C1427.29 314.933 1431.29 309.333 1436.62 304C1440.35 300.267 1444.89 298.4 1450.22 298.4C1455.02 298.4 1459.55 300.267 1463.82 304C1465.95 306.133 1467.29 309.6 1467.82 314.4C1468.89 318.667 1469.42 323.467 1469.42 328.8C1469.42 335.2 1468.89 341.6 1467.82 348C1466.75 353.867 1464.89 358.133 1462.22 360.8C1458.49 363.467 1455.29 364.8 1452.62 364.8ZM1371.02 679.2C1351.29 679.2 1337.69 674.667 1330.22 665.6C1322.75 656.533 1319.02 645.6 1319.02 632.8C1319.02 626.933 1319.55 621.067 1320.62 615.2C1321.69 609.333 1323.02 603.467 1324.62 597.6C1319.29 607.2 1311.02 618.4 1299.82 631.2C1288.62 643.467 1278.22 653.333 1268.62 660.8C1266.49 662.4 1264.35 663.2 1262.22 663.2C1259.02 663.2 1257.42 661.333 1257.42 657.6C1257.42 653.333 1259.02 649.6 1262.22 646.4C1284.62 622.933 1301.69 604 1313.42 589.6C1325.15 574.667 1334.22 562.133 1340.62 552C1347.02 541.867 1353.15 532.533 1359.02 524C1363.82 508.533 1368.09 493.6 1371.82 479.2C1376.09 464.267 1382.49 449.067 1391.02 433.6C1393.69 428.8 1399.02 426.4 1407.02 426.4C1412.35 426.4 1417.15 427.733 1421.42 430.4C1425.69 433.067 1427.82 437.6 1427.82 444C1427.82 447.2 1427.02 450.933 1425.42 455.2C1419.55 471.733 1413.15 485.867 1406.22 497.6C1399.82 508.8 1391.29 523.2 1380.62 540.8C1369.42 558.933 1360.35 576.533 1353.42 593.6C1347.02 610.667 1343.82 625.067 1343.82 636.8C1343.82 644.267 1345.42 650.4 1348.62 655.2C1352.35 660 1357.69 662.4 1364.62 662.4C1379.55 662.933 1391.02 660.533 1399.02 655.2C1407.02 649.333 1413.69 643.733 1419.02 638.4C1425.95 630.933 1431.82 624 1436.62 617.6C1441.95 611.2 1446.75 605.6 1451.02 600.8C1454.22 597.6 1455.82 598.133 1455.82 602.4C1455.82 605.067 1455.02 608.533 1453.42 612.8C1452.35 617.067 1451.02 620.267 1449.42 622.4C1444.09 629.867 1437.69 638.133 1430.22 647.2C1423.29 656.267 1415.02 664 1405.42 670.4C1395.82 676.267 1384.35 679.2 1371.02 679.2Z" fill="#8AD4EC"/>
<path d="M1728.12 646.4C1726.52 649.6 1721.45 655.467 1712.92 664C1704.92 672 1694.79 676.8 1682.52 678.4C1673.99 679.467 1667.85 674.667 1664.12 664C1660.92 652.8 1659.32 640 1659.32 625.6C1659.32 619.733 1659.59 613.867 1660.12 608C1660.65 601.6 1661.45 595.733 1662.52 590.4C1663.59 584.533 1664.65 578.933 1665.72 573.6C1666.79 568.267 1667.32 563.733 1667.32 560C1667.32 550.933 1663.85 547.467 1656.92 549.6C1652.12 555.467 1647.59 564.267 1643.32 576C1639.59 587.733 1636.39 596.533 1633.72 602.4C1627.85 615.733 1623.05 626.933 1619.32 636C1615.59 645.067 1610.79 649.6 1604.92 649.6C1600.12 649.6 1597.72 645.067 1597.72 636C1597.72 628.533 1598.79 620.8 1600.92 612.8C1603.05 604.8 1604.12 600.8 1604.12 600.8C1606.79 593.333 1609.19 585.067 1611.32 576C1613.99 566.4 1616.12 558.133 1617.72 551.2C1619.32 543.733 1620.12 540 1620.12 540C1620.12 538.933 1620.12 537.333 1620.12 535.2C1620.65 533.067 1620.92 530.933 1620.92 528.8C1620.92 524.533 1620.12 520.533 1618.52 516.8C1617.45 513.067 1614.25 510.933 1608.92 510.4C1605.72 509.867 1600.39 513.067 1592.92 520C1585.99 526.4 1578.79 534.4 1571.32 544C1564.39 553.067 1558.79 561.6 1554.52 569.6C1547.59 584 1542.79 598.667 1540.12 613.6C1537.45 628.533 1535.05 642.4 1532.92 655.2C1531.32 667.467 1528.39 677.6 1524.12 685.6C1522.52 688.8 1519.32 690.4 1514.52 690.4C1510.79 690.4 1506.79 689.333 1502.52 687.2C1498.79 684.533 1496.92 681.6 1496.92 678.4C1497.99 668.8 1500.12 657.333 1503.32 644C1507.05 630.667 1511.05 614.667 1515.32 596C1516.92 589.6 1518.25 582.133 1519.32 573.6C1520.39 565.067 1521.19 558.667 1521.72 554.4V552.8C1521.72 545.333 1518.25 541.6 1511.32 541.6C1508.65 541.6 1505.72 542.4 1502.52 544C1492.39 552.533 1483.85 561.867 1476.92 572C1469.99 582.133 1464.39 590.933 1460.12 598.4C1455.32 605.867 1451.05 610.4 1447.32 612C1445.72 612.533 1444.92 610.933 1444.92 607.2C1444.92 605.067 1445.19 602.667 1445.72 600C1446.25 597.333 1447.59 594.667 1449.72 592C1454.52 587.2 1459.59 579.467 1464.92 568.8C1470.25 558.133 1475.85 547.2 1481.72 536C1488.12 524.267 1495.05 514.4 1502.52 506.4C1510.52 497.867 1519.05 493.6 1528.12 493.6C1533.45 493.6 1538.79 497.333 1544.12 504.8C1549.99 512.267 1553.45 521.867 1554.52 533.6C1563.59 526.133 1572.12 518.133 1580.12 509.6C1588.12 500.533 1597.45 492.533 1608.12 485.6C1612.39 483.467 1616.92 482.4 1621.72 482.4C1629.72 482.4 1635.05 484.8 1637.72 489.6C1641.45 494.4 1643.59 501.333 1644.12 510.4C1644.65 519.467 1645.45 524.267 1646.52 524.8C1647.59 525.333 1649.99 523.733 1653.72 520C1657.99 515.733 1663.85 514.133 1671.32 515.2C1673.99 515.2 1677.72 516.8 1682.52 520C1687.32 523.2 1689.72 527.2 1689.72 532C1689.72 538.933 1689.19 547.467 1688.12 557.6C1687.05 567.2 1685.72 577.333 1684.12 588C1683.59 590.133 1683.32 593.067 1683.32 596.8C1683.32 600 1683.32 603.733 1683.32 608C1683.32 614.933 1683.85 622.4 1684.92 630.4C1686.52 637.867 1689.99 643.467 1695.32 647.2C1696.92 648.8 1699.05 649.6 1701.72 649.6C1707.59 649.6 1715.32 644.533 1724.92 634.4C1726.52 632.8 1727.85 632 1728.92 632C1730.52 632 1731.32 633.6 1731.32 636.8C1731.32 641.067 1730.25 644.267 1728.12 646.4Z" fill="#8AD4EC"/>
<path d="M2153.18 293.6C2148.38 306.933 2141.45 318.4 2132.38 328C2123.31 337.067 2109.71 341.6 2091.58 341.6C2083.05 341.6 2075.31 340 2068.38 336.8C2061.45 333.067 2055.85 326.933 2051.58 318.4C2048.38 312.533 2046.78 306.133 2046.78 299.2C2046.78 290.667 2048.91 282.933 2053.18 276C2057.98 269.067 2064.65 265.333 2073.18 264.8C2074.25 264.8 2075.31 264.8 2076.38 264.8C2077.98 264.267 2079.05 264 2079.58 264C2088.11 264 2094.78 267.2 2099.58 273.6C2101.18 275.733 2101.98 277.867 2101.98 280C2101.98 283.733 2099.85 287.733 2095.58 292C2091.85 295.733 2088.11 299.733 2084.38 304C2081.18 308.267 2080.38 313.067 2081.98 318.4C2085.18 328 2091.05 332.8 2099.58 332.8C2107.58 332.8 2116.11 328.533 2125.18 320C2134.78 310.933 2142.25 298.4 2147.58 282.4C2149.18 279.2 2149.98 275.467 2149.98 271.2C2149.98 263.2 2146.78 254.933 2140.38 246.4C2133.98 237.867 2125.71 231.733 2115.58 228C2111.31 226.4 2106.51 225.067 2101.18 224C2096.38 222.933 2091.58 222.4 2086.78 222.4C2067.58 222.4 2048.65 228 2029.98 239.2C2011.31 250.4 1998.51 265.867 1991.58 285.6C1988.91 292.533 1987.05 299.2 1985.98 305.6C1984.91 312 1984.38 317.867 1984.38 323.2C1984.38 338.667 1988.38 351.733 1996.38 362.4C2004.38 373.067 2014.51 382.667 2026.78 391.2C2039.58 399.733 2052.91 408.533 2066.78 417.6C2080.65 426.133 2093.71 436 2105.98 447.2C2118.78 458.4 2129.18 472 2137.18 488C2145.18 504 2149.18 523.733 2149.18 547.2C2149.18 560.533 2147.58 575.467 2144.38 592C2141.18 608.533 2135.85 626.933 2128.38 647.2C2119.31 671.733 2105.71 693.867 2087.58 713.6C2069.98 733.867 2049.45 749.867 2025.98 761.6C2003.05 773.333 1978.78 779.2 1953.18 779.2C1935.58 779.2 1917.98 776 1900.38 769.6C1874.25 760 1856.65 747.733 1847.58 732.8C1837.98 718.4 1833.18 703.733 1833.18 688.8C1833.18 678.667 1834.51 669.067 1837.18 660C1839.85 650.933 1842.25 642.933 1844.38 636C1848.11 625.333 1855.58 614.4 1866.78 603.2C1878.51 592 1891.58 582.667 1905.98 575.2C1920.38 567.2 1933.71 563.2 1945.98 563.2C1951.31 563.2 1956.38 564 1961.18 565.6C1971.31 568.267 1976.38 578.933 1976.38 597.6C1976.38 602.933 1975.85 608.267 1974.78 613.6C1973.71 618.933 1972.11 624.533 1969.98 630.4C1966.25 640.533 1960.65 648.8 1953.18 655.2C1946.25 661.6 1936.91 664.8 1925.18 664.8C1919.31 664.8 1913.71 664.533 1908.38 664C1903.58 662.933 1899.85 660.267 1897.18 656C1896.65 654.933 1896.11 653.867 1895.58 652.8C1895.58 651.733 1895.58 650.667 1895.58 649.6C1895.58 641.067 1899.85 633.867 1908.38 628C1912.65 624.8 1916.65 624.8 1920.38 628C1924.11 631.2 1927.85 634.667 1931.58 638.4C1935.85 641.6 1940.38 642.667 1945.18 641.6C1953.71 639.467 1959.31 634.667 1961.98 627.2C1964.65 619.733 1965.98 611.467 1965.98 602.4C1965.98 599.733 1965.98 597.067 1965.98 594.4C1965.98 591.733 1965.71 589.067 1965.18 586.4C1964.65 577.333 1960.11 572.8 1951.58 572.8C1945.18 572.8 1937.18 575.467 1927.58 580.8C1918.51 586.133 1909.18 592.8 1899.58 600.8C1890.51 608.267 1882.51 616 1875.58 624C1868.65 631.467 1864.38 637.333 1862.78 641.6C1857.98 654.933 1855.58 667.467 1855.58 679.2C1855.58 707.467 1870.51 727.2 1900.38 738.4C1903.58 739.467 1907.31 740 1911.58 740C1922.25 740 1936.65 737.6 1954.78 732.8C1973.45 728 1993.18 720.267 2013.98 709.6C2034.78 698.933 2054.25 684.533 2072.38 666.4C2090.51 648.267 2104.38 625.867 2113.98 599.2C2118.78 586.4 2122.25 574.667 2124.38 564C2126.51 553.333 2127.58 543.467 2127.58 534.4C2127.58 514.133 2123.05 497.333 2113.98 484C2105.45 470.133 2093.98 458.667 2079.58 449.6C2065.71 440.533 2051.05 432.267 2035.58 424.8C2020.11 417.333 2005.18 409.6 1990.78 401.6C1976.91 393.067 1965.45 383.2 1956.38 372C1947.85 360.267 1943.58 345.6 1943.58 328C1943.58 321.6 1944.11 314.667 1945.18 307.2C1946.78 299.2 1949.18 290.933 1952.38 282.4C1963.05 252.533 1978.51 231.2 1998.78 218.4C2019.58 205.6 2041.45 199.2 2064.38 199.2C2073.98 199.2 2083.58 200.267 2093.18 202.4C2102.78 204 2112.11 206.4 2121.18 209.6C2136.65 214.933 2147.05 221.6 2152.38 229.6C2158.25 237.6 2161.18 246.4 2161.18 256C2161.18 261.867 2160.38 268 2158.78 274.4C2157.71 280.267 2155.85 286.667 2153.18 293.6Z" fill="#8AD4EC"/>
<path d="M2453.36 625.6C2454.96 624 2457.1 623.2 2459.76 623.2C2463.5 623.2 2465.36 625.067 2465.36 628.8C2465.36 630.933 2464.03 634.133 2461.36 638.4C2459.23 642.667 2454.43 647.733 2446.96 653.6C2439.5 660 2431.76 665.867 2423.76 671.2C2416.3 676.533 2405.9 679.2 2392.56 679.2C2378.16 679.2 2366.7 676.533 2358.16 671.2C2350.16 665.867 2344.3 660 2340.56 653.6C2337.36 646.667 2335.23 641.333 2334.16 637.6C2327.76 642.4 2321.1 648.8 2314.16 656.8C2307.76 664.267 2298.43 671.2 2286.16 677.6C2273.9 683.467 2256.3 686.4 2233.36 686.4C2220.56 686.4 2208.83 683.467 2198.16 677.6C2188.03 671.2 2182.96 657.6 2182.96 636.8C2182.96 630.933 2183.23 624.8 2183.76 618.4C2184.83 611.467 2186.43 604 2188.56 596C2194.96 570.933 2202.43 551.2 2210.96 536.8C2219.5 522.4 2232.3 511.733 2249.36 504.8C2260.03 500.533 2273.1 496.533 2288.56 492.8C2304.03 489.067 2317.63 485.867 2329.36 483.2C2333.1 482.133 2336.3 478.667 2338.96 472.8C2342.16 466.4 2345.63 460.533 2349.36 455.2C2351.5 452.533 2353.9 450.4 2356.56 448.8C2359.23 446.667 2362.16 445.6 2365.36 445.6C2368.03 445.6 2371.5 446.933 2375.76 449.6C2379.5 452.267 2381.9 457.333 2382.96 464.8C2384.56 472.267 2385.36 479.2 2385.36 485.6C2384.83 488.8 2383.5 492.8 2381.36 497.6C2379.76 501.867 2378.43 506.667 2377.36 512C2376.3 518.933 2373.63 528.8 2369.36 541.6C2365.1 554.4 2362.96 565.067 2362.96 573.6C2362.96 581.067 2362.43 590.4 2361.36 601.6C2360.3 612.267 2360.3 619.733 2361.36 624C2367.23 636.8 2375.5 645.333 2386.16 649.6C2396.83 653.333 2406.16 654.4 2414.16 652.8C2420.03 651.733 2426.7 648.267 2434.16 642.4C2441.63 636.533 2448.03 630.933 2453.36 625.6ZM2323.76 534.4C2322.7 530.133 2320.03 525.6 2315.76 520.8C2312.03 516 2307.23 513.6 2301.36 513.6C2300.3 513.6 2298.16 514.133 2294.96 515.2C2285.9 518.4 2276.3 524.533 2266.16 533.6C2256.03 542.133 2247.23 553.333 2239.76 567.2C2232.3 581.067 2228.03 597.333 2226.96 616C2226.96 621.333 2228.56 628.267 2231.76 636.8C2235.5 645.333 2240.3 652.533 2246.16 658.4C2252.03 664.267 2257.9 665.867 2263.76 663.2C2276.56 657.867 2287.23 650.4 2295.76 640.8C2304.83 630.667 2312.3 618.4 2318.16 604C2320.83 597.067 2322.7 589.867 2323.76 582.4C2325.36 574.4 2326.16 566.933 2326.16 560C2326.16 553.6 2325.9 548.267 2325.36 544C2324.83 539.2 2324.3 536 2323.76 534.4Z" fill="#8AD4EC"/>
<path d="M2710.93 646.4C2709.33 649.6 2704.26 655.467 2695.73 664C2687.73 672 2677.6 676.8 2665.33 678.4C2656.8 679.467 2650.66 674.667 2646.93 664C2643.73 652.8 2642.13 640 2642.13 625.6C2642.13 619.733 2642.4 613.867 2642.93 608C2643.46 601.6 2644.26 595.733 2645.33 590.4C2646.4 584.533 2647.46 578.933 2648.53 573.6C2649.6 568.267 2650.13 563.733 2650.13 560C2650.13 550.933 2646.66 547.467 2639.73 549.6C2634.93 555.467 2630.4 564.267 2626.13 576C2622.4 587.733 2619.2 596.533 2616.53 602.4C2610.66 615.733 2605.86 626.933 2602.13 636C2598.4 645.067 2593.6 649.6 2587.73 649.6C2582.93 649.6 2580.53 645.067 2580.53 636C2580.53 628.533 2581.6 620.8 2583.73 612.8C2585.86 604.8 2586.93 600.8 2586.93 600.8C2589.6 593.333 2592 585.067 2594.13 576C2596.8 566.4 2598.93 558.133 2600.53 551.2C2602.13 543.733 2602.93 540 2602.93 540C2602.93 538.933 2602.93 537.333 2602.93 535.2C2603.46 533.067 2603.73 530.933 2603.73 528.8C2603.73 524.533 2602.93 520.533 2601.33 516.8C2600.26 513.067 2597.06 510.933 2591.73 510.4C2588.53 509.867 2583.2 513.067 2575.73 520C2568.8 526.4 2561.6 534.4 2554.13 544C2547.2 553.067 2541.6 561.6 2537.33 569.6C2530.4 584 2525.6 598.667 2522.93 613.6C2520.26 628.533 2517.86 642.4 2515.73 655.2C2514.13 667.467 2511.2 677.6 2506.93 685.6C2505.33 688.8 2502.13 690.4 2497.33 690.4C2493.6 690.4 2489.6 689.333 2485.33 687.2C2481.6 684.533 2479.73 681.6 2479.73 678.4C2480.8 668.8 2482.93 657.333 2486.13 644C2489.86 630.667 2493.86 614.667 2498.13 596C2499.73 589.6 2501.06 582.133 2502.13 573.6C2503.2 565.067 2504 558.667 2504.53 554.4V552.8C2504.53 545.333 2501.06 541.6 2494.13 541.6C2491.46 541.6 2488.53 542.4 2485.33 544C2475.2 552.533 2466.66 561.867 2459.73 572C2452.8 582.133 2447.2 590.933 2442.93 598.4C2438.13 605.867 2433.86 610.4 2430.13 612C2428.53 612.533 2427.73 610.933 2427.73 607.2C2427.73 605.067 2428 602.667 2428.53 600C2429.06 597.333 2430.4 594.667 2432.53 592C2437.33 587.2 2442.4 579.467 2447.73 568.8C2453.06 558.133 2458.66 547.2 2464.53 536C2470.93 524.267 2477.86 514.4 2485.33 506.4C2493.33 497.867 2501.86 493.6 2510.93 493.6C2516.26 493.6 2521.6 497.333 2526.93 504.8C2532.8 512.267 2536.26 521.867 2537.33 533.6C2546.4 526.133 2554.93 518.133 2562.93 509.6C2570.93 500.533 2580.26 492.533 2590.93 485.6C2595.2 483.467 2599.73 482.4 2604.53 482.4C2612.53 482.4 2617.86 484.8 2620.53 489.6C2624.26 494.4 2626.4 501.333 2626.93 510.4C2627.46 519.467 2628.26 524.267 2629.33 524.8C2630.4 525.333 2632.8 523.733 2636.53 520C2640.8 515.733 2646.66 514.133 2654.13 515.2C2656.8 515.2 2660.53 516.8 2665.33 520C2670.13 523.2 2672.53 527.2 2672.53 532C2672.53 538.933 2672 547.467 2670.93 557.6C2669.86 567.2 2668.53 577.333 2666.93 588C2666.4 590.133 2666.13 593.067 2666.13 596.8C2666.13 600 2666.13 603.733 2666.13 608C2666.13 614.933 2666.66 622.4 2667.73 630.4C2669.33 637.867 2672.8 643.467 2678.13 647.2C2679.73 648.8 2681.86 649.6 2684.53 649.6C2690.4 649.6 2698.13 644.533 2707.73 634.4C2709.33 632.8 2710.66 632 2711.73 632C2713.33 632 2714.13 633.6 2714.13 636.8C2714.13 641.067 2713.06 644.267 2710.93 646.4Z" fill="#8AD4EC"/>
<path d="M2931.85 372C2931.85 372 2931.85 373.867 2931.85 377.6C2932.38 381.333 2931.32 385.867 2928.65 391.2C2925.98 396.533 2920.12 401.867 2911.05 407.2C2907.85 409.333 2901.98 410.933 2893.45 412C2884.92 413.067 2875.32 413.867 2864.65 414.4C2858.78 429.867 2852.38 445.6 2845.45 461.6C2838.52 477.067 2831.32 491.733 2823.85 505.6C2812.65 526.933 2803.05 542.667 2795.05 552.8C2787.58 562.933 2781.72 570.667 2777.45 576C2773.18 580.8 2770.25 586.667 2768.65 593.6C2768.12 596.8 2767.58 599.733 2767.05 602.4C2767.05 605.067 2767.05 607.733 2767.05 610.4C2767.05 630.133 2772.65 644.533 2783.85 653.6C2795.58 662.667 2806.78 667.2 2817.45 667.2C2829.72 667.2 2841.98 662.933 2854.25 654.4C2866.52 645.333 2876.65 637.067 2884.65 629.6C2891.05 624.267 2895.85 621.6 2899.05 621.6C2901.18 621.6 2902.25 622.667 2902.25 624.8C2902.25 628.533 2899.32 634.4 2893.45 642.4C2890.25 646.667 2884.92 652.533 2877.45 660C2869.98 667.467 2860.65 674.4 2849.45 680.8C2838.25 686.667 2825.72 689.6 2811.85 689.6C2784.12 689.6 2765.45 683.2 2755.85 670.4C2746.78 657.6 2742.25 636.267 2742.25 606.4C2742.25 582.933 2744.65 554.133 2749.45 520C2754.25 485.333 2761.72 448.8 2771.85 410.4C2769.18 410.4 2766.52 410.4 2763.85 410.4C2761.18 409.867 2758.78 409.6 2756.65 409.6C2749.72 409.6 2744.38 410.667 2740.65 412.8C2737.45 414.4 2734.78 415.2 2732.65 415.2C2727.32 415.2 2724.65 411.2 2724.65 403.2C2724.65 394.133 2727.05 387.2 2731.85 382.4C2735.58 378.667 2741.98 376.8 2751.05 376.8C2757.98 376.8 2767.32 378.133 2779.05 380.8C2780.12 377.6 2781.18 374.667 2782.25 372C2783.32 369.333 2784.12 366.667 2784.65 364C2785.72 358.667 2786.78 354.4 2787.85 351.2C2788.92 348 2790.25 344 2791.85 339.2C2800.92 312 2810.78 285.867 2821.45 260.8C2832.12 235.733 2847.58 213.333 2867.85 193.6C2871.58 187.733 2876.65 184.8 2883.05 184.8C2887.85 184.8 2892.12 186.933 2895.85 191.2C2899.58 194.933 2901.18 199.467 2900.65 204.8C2900.65 204.8 2900.38 211.467 2899.85 224.8C2899.32 238.133 2898.25 254.4 2896.65 273.6C2895.05 292.267 2892.65 310.133 2889.45 327.2C2887.85 337.333 2885.45 348.267 2882.25 360C2879.58 371.2 2876.12 382.667 2871.85 394.4C2875.05 394.933 2877.98 395.467 2880.65 396C2883.85 396 2886.78 396 2889.45 396C2897.45 396 2903.58 394.933 2907.85 392.8C2912.65 390.133 2915.32 387.467 2915.85 384.8C2916.92 382.133 2917.45 380.8 2917.45 380.8C2917.45 370.133 2920.12 364.8 2925.45 364.8C2928.12 364.8 2930.25 367.2 2931.85 372ZM2875.05 238.4C2871.85 237.867 2866.78 244 2859.85 256.8C2852.92 269.6 2845.45 286.4 2837.45 307.2C2829.45 328 2821.72 350.133 2814.25 373.6C2813.72 375.733 2813.18 377.867 2812.65 380C2812.12 381.6 2811.58 383.467 2811.05 385.6C2814.78 386.667 2818.52 387.467 2822.25 388C2825.98 388.533 2829.98 389.333 2834.25 390.4C2836.38 390.933 2838.78 391.2 2841.45 391.2C2844.12 391.2 2846.52 391.733 2848.65 392.8C2850.78 386.933 2852.65 381.867 2854.25 377.6C2855.85 372.8 2857.45 368.533 2859.05 364.8C2864.92 345.067 2869.72 324.8 2873.45 304C2877.18 283.2 2879.05 266.933 2879.05 255.2C2879.05 245.6 2877.72 240 2875.05 238.4ZM2839.85 414.4H2825.45C2821.72 414.4 2817.98 414.4 2814.25 414.4C2811.05 414.4 2807.85 414.133 2804.65 413.6C2799.85 433.867 2795.05 455.733 2790.25 479.2C2785.98 502.133 2782.52 522.667 2779.85 540.8C2786.25 533.333 2792.92 522.667 2799.85 508.8C2806.78 494.933 2813.72 479.733 2820.65 463.2C2827.58 446.133 2833.98 429.867 2839.85 414.4Z" fill="#8AD4EC"/>
<path d="M3139.72 626.4C3124.79 645.6 3111.19 659.733 3098.93 668.8C3087.19 677.333 3075.19 682.667 3062.93 684.8C3051.19 686.933 3037.86 688 3022.93 688C3009.59 688 2997.06 686.933 2985.32 684.8C2973.59 682.667 2965.06 679.733 2959.72 676C2958.12 686.667 2956.53 699.467 2954.93 714.4C2953.86 729.867 2950.39 752.533 2944.52 782.4C2935.99 824 2924.26 858.4 2909.32 885.6C2894.92 912.8 2876.53 928 2854.12 931.2C2846.12 932.267 2840.52 928.533 2837.32 920C2834.12 912 2832.52 902.133 2832.52 890.4C2832.52 879.733 2833.59 868.533 2835.72 856.8C2837.86 845.067 2840.26 834.4 2842.93 824.8C2849.33 802.933 2854.66 786.4 2858.93 775.2C2862.66 764.533 2866.12 755.733 2869.32 748.8C2871.99 742.4 2874.92 734.933 2878.12 726.4C2881.33 718.4 2885.32 706.667 2890.12 691.2C2891.73 685.867 2893.59 679.733 2895.72 672.8C2898.39 665.333 2901.32 657.333 2904.52 648.8C2903.99 644.533 2902.92 641.6 2901.32 640C2899.72 638.4 2898.93 636 2898.93 632.8C2898.93 623.2 2903.72 615.733 2913.32 610.4C2923.46 605.067 2931.46 603.2 2937.32 604.8C2938.39 594.133 2939.19 581.067 2939.72 565.6C2940.26 550.133 2941.33 534.667 2942.93 519.2C2945.06 503.2 2947.99 489.067 2951.72 476.8C2955.46 464.533 2960.53 456 2966.93 451.2C2971.19 450.133 2974.66 449.6 2977.32 449.6C2985.32 449.6 2990.39 452 2992.52 456.8C2993.06 457.867 2993.32 460 2993.32 463.2V470.4C2993.32 474.133 2994.12 476.533 2995.72 477.6C3002.66 480.8 3011.46 482.4 3022.12 482.4C3032.79 482.4 3041.59 484.533 3048.52 488.8C3055.99 493.067 3062.66 500 3068.52 509.6C3074.39 518.667 3077.32 531.2 3077.32 547.2C3077.32 552.533 3075.99 561.867 3073.32 575.2C3071.19 588.533 3066.12 602.667 3058.12 617.6C3050.66 632.533 3038.93 644.8 3022.93 654.4C3033.06 658.667 3042.92 660.8 3052.52 660.8C3065.86 660.8 3079.46 656.8 3093.32 648.8C3107.19 640.267 3121.59 626.133 3136.52 606.4C3139.19 603.2 3141.33 601.6 3142.93 601.6C3146.13 601.6 3147.72 603.733 3147.72 608C3147.72 612.8 3145.06 618.933 3139.72 626.4ZM3052.52 536.8C3052.52 527.2 3047.73 518.4 3038.12 510.4C3029.06 501.867 3019.73 497.6 3010.12 497.6C2998.39 497.6 2989.33 503.2 2982.93 514.4C2976.53 525.067 2971.72 539.467 2968.52 557.6C2965.32 575.2 2962.13 594.4 2958.93 615.2C2959.46 615.733 2959.72 616 2959.72 616C2960.26 616 2960.52 616 2960.52 616C2961.59 616 2962.39 615.733 2962.93 615.2C2963.99 614.667 2965.06 614.4 2966.12 614.4C2967.19 614.4 2968.79 614.667 2970.93 615.2C2973.06 615.733 2975.19 617.333 2977.32 620C2983.19 624.8 2988.52 628.8 2993.32 632C2998.66 635.2 3002.39 636.8 3004.52 636.8C3009.86 636.8 3015.19 633.867 3020.52 628C3026.39 622.133 3031.72 614.933 3036.52 606.4C3041.32 597.867 3044.79 590.133 3046.93 583.2C3050.13 573.6 3051.72 564.267 3051.72 555.2C3052.26 545.6 3052.52 539.467 3052.52 536.8ZM2998.93 650.4C2998.93 650.4 2995.72 649.333 2989.32 647.2C2982.92 645.067 2976.79 642.133 2970.93 638.4C2969.86 637.867 2968.26 637.6 2966.12 637.6C2963.46 637.6 2962.12 639.733 2962.12 644C2962.12 646.133 2962.66 648.533 2963.72 651.2C2964.79 653.333 2966.39 654.933 2968.52 656C2974.92 657.6 2981.59 657.067 2988.52 654.4C2995.46 651.733 2998.93 650.4 2998.93 650.4ZM2932.52 665.6C2931.46 664.533 2929.59 663.733 2926.93 663.2C2924.79 662.133 2922.66 661.067 2920.52 660C2913.06 686.133 2905.59 709.6 2898.12 730.4C2891.19 751.2 2884.53 772 2878.12 792.8C2872.26 813.6 2866.93 837.6 2862.12 864.8C2861.59 868.533 2861.32 871.733 2861.32 874.4C2860.79 877.6 2860.52 880.267 2860.52 882.4C2860.52 889.333 2861.86 892.8 2864.52 892.8C2867.19 892.8 2870.39 890.4 2874.12 885.6C2877.86 881.333 2881.06 876.8 2883.72 872C2897.59 850.667 2906.39 833.067 2910.12 819.2C2914.39 805.333 2916.79 792.267 2917.32 780C2917.86 768.267 2919.73 754.667 2922.93 739.2C2925.06 728.533 2926.92 717.6 2928.52 706.4C2930.66 695.733 2931.99 686.4 2932.52 678.4C2933.59 670.4 2933.59 666.133 2932.52 665.6Z" fill="#8AD4EC"/>
<path d="M3363.72 193.6C3364.79 196.8 3365.32 200.267 3365.32 204C3365.32 215.2 3362.65 230.667 3357.32 250.4C3352.52 270.133 3346.65 290.4 3339.72 311.2C3332.79 331.467 3326.65 349.067 3321.32 364C3304.79 409.333 3289.05 446.133 3274.12 474.4C3259.72 502.667 3246.92 524.8 3235.72 540.8C3224.52 556.267 3215.72 567.733 3209.32 575.2C3202.92 582.667 3199.72 588.267 3199.72 592C3203.45 600 3206.65 611.733 3209.32 627.2C3211.99 642.133 3213.59 655.2 3214.12 666.4C3218.39 667.467 3223.72 668 3230.12 668C3235.45 668 3241.05 667.467 3246.92 666.4C3252.79 665.333 3258.39 663.733 3263.72 661.6C3280.79 654.133 3294.92 643.733 3306.12 630.4C3317.32 616.533 3325.32 606.133 3330.12 599.2C3332.25 596.533 3334.39 595.2 3336.52 595.2C3339.19 595.2 3341.05 596.8 3342.12 600C3343.19 602.667 3342.92 605.333 3341.32 608C3330.65 624.533 3319.72 638.667 3308.52 650.4C3297.32 662.133 3284.52 671.2 3270.12 677.6C3255.19 684 3242.65 687.733 3232.52 688.8C3222.39 689.867 3217.32 690.4 3217.32 690.4C3216.25 694.667 3215.19 698.933 3214.12 703.2C3213.59 708 3212.52 714.933 3210.92 724C3209.32 733.067 3206.92 746.667 3203.72 764.8C3196.79 801.067 3188.25 834.133 3178.12 864C3167.99 893.867 3150.39 919.467 3125.32 940.8C3122.12 942.933 3119.19 944 3116.52 944C3111.19 944 3105.59 941.867 3099.72 937.6C3093.85 933.867 3090.12 929.067 3088.52 923.2C3086.92 917.333 3085.59 908.8 3084.52 897.6C3083.45 886.933 3082.65 876 3082.12 864.8C3081.59 853.6 3081.32 844.8 3081.32 838.4C3081.32 815.467 3085.05 785.067 3092.52 747.2C3099.99 709.867 3110.39 668.267 3123.72 622.4C3137.05 576 3153.05 528.533 3171.72 480C3190.39 430.933 3210.92 384 3233.32 339.2C3241.32 323.2 3250.39 306.133 3260.52 288C3271.19 269.867 3281.85 252.8 3292.52 236.8C3303.72 220.267 3314.39 206.933 3324.52 196.8C3334.65 186.667 3343.19 181.6 3350.12 181.6C3356.52 181.6 3361.05 185.6 3363.72 193.6ZM3334.12 233.6C3327.72 237.333 3320.79 246.133 3313.32 260C3306.39 273.333 3299.45 288.267 3292.52 304.8C3285.59 320.8 3278.92 335.2 3272.52 348C3258.12 377.333 3243.45 409.333 3228.52 444C3214.12 478.133 3199.99 517.867 3186.12 563.2C3191.99 557.333 3199.99 547.2 3210.12 532.8C3220.25 518.4 3230.92 501.333 3242.12 481.6C3253.32 461.333 3264.25 440.533 3274.92 419.2C3286.12 397.867 3295.45 377.6 3302.92 358.4C3309.32 343.467 3315.19 328 3320.52 312C3325.85 295.467 3330.12 280.533 3333.32 267.2C3336.52 253.867 3338.12 244.267 3338.12 238.4C3338.12 233.6 3336.79 232 3334.12 233.6ZM3187.72 628C3186.65 623.733 3185.05 619.467 3182.92 615.2C3181.32 610.4 3178.39 608.533 3174.12 609.6C3170.92 613.333 3168.25 617.6 3166.12 622.4C3164.52 627.2 3163.72 634.133 3163.72 643.2C3163.72 643.2 3165.32 644.8 3168.52 648C3172.25 650.667 3176.79 651.2 3182.12 649.6C3183.72 648.533 3185.32 647.467 3186.92 646.4C3188.52 645.333 3189.32 642.933 3189.32 639.2C3189.32 637.6 3189.32 636 3189.32 634.4C3189.32 632.267 3188.79 630.133 3187.72 628ZM3190.92 684C3190.92 684 3189.85 684.267 3187.72 684.8C3185.59 685.333 3182.92 685.6 3179.72 685.6C3175.45 685.6 3170.65 684.533 3165.32 682.4C3159.99 679.733 3156.25 674.933 3154.12 668C3149.85 685.067 3146.65 697.6 3144.52 705.6C3142.39 713.6 3140.79 719.467 3139.72 723.2C3138.65 726.933 3137.59 730.933 3136.52 735.2C3135.99 739.467 3134.92 746.667 3133.32 756.8C3131.72 766.933 3129.05 782.4 3125.32 803.2C3123.19 813.867 3121.32 825.867 3119.72 839.2C3118.12 853.067 3117.32 865.333 3117.32 876C3117.32 884 3117.85 890.4 3118.92 895.2C3120.52 900 3122.65 902.133 3125.32 901.6C3128.52 901.067 3131.72 897.6 3134.92 891.2C3138.65 885.333 3142.39 878.4 3146.12 870.4C3149.85 862.933 3153.32 856.8 3156.52 852C3161.32 844.533 3164.79 837.333 3166.92 830.4C3169.59 823.467 3171.99 813.6 3174.12 800.8C3176.79 788.533 3180.52 770.933 3185.32 748C3186.92 740.533 3187.99 731.733 3188.52 721.6C3189.59 712 3190.12 703.2 3190.12 695.2C3190.65 687.733 3190.92 684 3190.92 684Z" fill="#8AD4EC"/>
<path d="M3487.96 537.6C3487.96 548.8 3485.56 563.467 3480.76 581.6C3475.96 599.733 3469.56 616.8 3461.56 632.8C3454.1 649.333 3445.56 661.6 3435.96 669.6C3426.9 677.067 3418.1 682.4 3409.56 685.6C3401.03 688.267 3394.1 690.933 3388.76 693.6C3386.63 694.133 3384.23 694.667 3381.56 695.2C3379.43 696.267 3377.03 696.8 3374.36 696.8C3363.7 696.8 3355.43 693.867 3349.56 688C3347.43 685.867 3343.96 683.733 3339.16 681.6C3334.9 679.467 3330.9 675.733 3327.16 670.4C3323.43 665.067 3321.56 656.267 3321.56 644C3321.56 631.2 3323.16 618.933 3326.36 607.2C3316.76 596 3311.96 583.733 3311.96 570.4C3311.96 562.4 3313.83 554.667 3317.56 547.2C3327.7 528 3340.5 513.067 3355.96 502.4C3371.43 491.733 3386.1 484.267 3399.96 480C3414.36 475.733 3424.23 473.6 3429.56 473.6C3449.3 473.6 3463.96 480 3473.56 492.8C3483.16 505.6 3487.96 520.533 3487.96 537.6ZM3455.16 541.6C3455.16 529.333 3450.9 519.2 3442.36 511.2C3434.36 503.2 3424.23 499.2 3411.96 499.2C3401.83 499.2 3391.43 502.4 3380.76 508.8C3370.63 514.667 3361.83 522.133 3354.36 531.2C3346.9 540.267 3342.1 549.067 3339.96 557.6C3339.43 560.8 3338.9 563.733 3338.36 566.4C3338.36 569.067 3338.36 571.733 3338.36 574.4C3344.23 561.6 3350.36 550.933 3356.76 542.4C3363.7 533.867 3368.76 528.533 3371.96 526.4C3374.63 524.267 3378.1 523.2 3382.36 523.2C3388.23 523.2 3391.16 524.8 3391.16 528C3391.16 530.133 3388.23 534.133 3382.36 540C3377.03 545.333 3370.9 552.533 3363.96 561.6C3357.03 570.133 3351.16 580.8 3346.36 593.6C3350.63 598.933 3356.23 602.933 3363.16 605.6C3370.63 607.733 3377.83 608.8 3384.76 608.8C3392.23 608.8 3399.16 607.467 3405.56 604.8C3412.5 601.6 3417.03 597.333 3419.16 592C3419.7 590.4 3419.96 589.067 3419.96 588C3420.5 586.4 3420.76 585.067 3420.76 584C3420.76 578.667 3418.36 575.467 3413.56 574.4C3409.3 572.8 3405.03 572.267 3400.76 572.8H3399.16C3393.3 572.8 3390.36 571.467 3390.36 568.8C3390.36 567.2 3390.9 565.6 3391.96 564C3393.56 562.4 3394.9 561.067 3395.96 560C3399.16 556.8 3402.63 555.2 3406.36 555.2C3411.7 555.2 3417.56 558.667 3423.96 565.6C3429.83 573.6 3432.76 581.333 3432.76 588.8C3432.76 598.4 3427.96 605.867 3418.36 611.2C3409.3 616.533 3399.16 620.267 3387.96 622.4C3376.76 624.533 3368.23 625.6 3362.36 625.6C3353.83 625.6 3346.9 623.733 3341.56 620C3341.03 621.067 3340.76 623.467 3340.76 627.2C3340.76 642.133 3344.76 652.267 3352.76 657.6C3360.76 662.4 3367.43 666.133 3372.76 668.8C3375.96 669.867 3378.63 670.4 3380.76 670.4C3388.23 670.4 3395.96 667.2 3403.96 660.8C3412.5 654.4 3419.96 645.6 3426.36 634.4C3431.16 625.867 3435.7 615.733 3439.96 604C3444.23 592.267 3447.7 580.8 3450.36 569.6C3453.56 557.867 3455.16 548.533 3455.16 541.6Z" fill="#8AD4EC"/>
<path d="M3653.71 414.4C3652.11 418.667 3650.25 423.2 3648.11 428C3646.51 432.8 3644.91 437.333 3643.31 441.6L3648.91 442.4C3652.11 442.933 3655.05 443.467 3657.71 444C3660.91 444 3663.85 444 3666.51 444C3670.78 444 3674.51 443.733 3677.71 443.2C3680.91 442.133 3683.31 441.333 3684.91 440.8C3689.18 439.733 3691.85 438.4 3692.91 436.8C3693.98 435.2 3694.51 434.4 3694.51 434.4C3694.51 432.267 3695.31 430.133 3696.91 428C3698.51 425.333 3700.38 424 3702.51 424C3705.18 424 3707.31 426.4 3708.91 431.2C3708.91 431.2 3708.65 433.867 3708.11 439.2C3708.11 444.533 3701.45 449.867 3688.11 455.2C3679.05 458.933 3663.58 461.333 3641.71 462.4H3633.71C3630.51 469.867 3627.05 477.333 3623.31 484.8C3620.11 491.733 3616.65 498.667 3612.91 505.6C3601.71 526.933 3592.11 542.667 3584.11 552.8C3576.65 562.933 3570.78 570.667 3566.51 576C3562.25 580.8 3559.31 586.667 3557.71 593.6C3557.18 596.8 3556.65 599.733 3556.11 602.4C3556.11 605.067 3556.11 607.733 3556.11 610.4C3556.11 630.133 3561.71 644.533 3572.91 653.6C3584.65 662.667 3595.85 667.2 3606.51 667.2C3618.78 667.2 3631.05 662.933 3643.31 654.4C3655.58 645.333 3665.71 637.067 3673.71 629.6C3680.11 624.267 3684.91 621.6 3688.11 621.6C3690.25 621.6 3691.31 622.667 3691.31 624.8C3691.31 628.533 3688.38 634.4 3682.51 642.4C3679.31 646.667 3673.98 652.533 3666.51 660C3659.05 667.467 3649.71 674.4 3638.51 680.8C3627.31 686.667 3614.78 689.6 3600.91 689.6C3573.18 689.6 3554.51 683.2 3544.91 670.4C3535.85 657.6 3531.31 636.267 3531.31 606.4C3531.31 587.733 3532.65 565.867 3535.31 540.8C3538.51 515.2 3543.05 487.733 3548.91 458.4L3535.31 457.6C3528.38 457.6 3523.05 458.667 3519.31 460.8C3516.11 462.4 3513.45 463.2 3511.31 463.2C3505.98 463.2 3503.31 459.2 3503.31 451.2C3503.31 442.133 3505.71 435.2 3510.51 430.4C3514.25 426.667 3520.65 424.8 3529.71 424.8C3533.98 424.8 3538.25 425.333 3542.51 426.4C3546.78 426.933 3551.31 427.733 3556.11 428.8L3560.91 410.4L3573.71 364C3574.78 358.667 3575.85 354.4 3576.91 351.2C3577.98 348 3579.31 344 3580.91 339.2C3589.98 312 3599.85 285.867 3610.51 260.8C3621.18 235.733 3636.65 213.333 3656.91 193.6C3660.65 187.733 3665.71 184.8 3672.11 184.8C3676.91 184.8 3681.18 186.933 3684.91 191.2C3688.65 194.933 3690.25 199.467 3689.71 204.8C3689.71 204.8 3689.45 211.467 3688.91 224.8C3688.38 238.133 3687.31 254.4 3685.71 273.6C3684.11 292.267 3681.71 310.133 3678.51 327.2C3676.91 337.333 3674.51 348.267 3671.31 360C3668.65 371.2 3665.18 382.667 3660.91 394.4L3653.71 414.4ZM3588.91 433.6C3592.65 434.667 3596.11 435.467 3599.31 436C3603.05 436.533 3607.05 437.333 3611.31 438.4L3618.51 439.2C3620.65 435.467 3622.51 431.467 3624.11 427.2C3625.71 422.4 3627.31 418.133 3628.91 414.4L3637.71 392.8C3639.85 386.933 3641.71 381.867 3643.31 377.6C3644.91 372.8 3646.51 368.533 3648.11 364.8C3653.98 345.067 3658.78 324.8 3662.51 304C3666.25 283.2 3668.11 266.933 3668.11 255.2C3668.11 245.6 3666.78 240 3664.11 238.4C3660.91 237.867 3655.85 244 3648.91 256.8C3641.98 269.6 3634.51 286.4 3626.51 307.2C3618.51 328 3610.78 350.133 3603.31 373.6C3602.78 375.733 3602.25 377.867 3601.71 380C3601.18 381.6 3600.65 383.467 3600.11 385.6L3593.71 413.6L3588.91 433.6ZM3568.91 540.8C3574.78 533.333 3581.18 522.667 3588.11 508.8C3595.05 494.4 3601.98 478.933 3608.91 462.4H3602.51C3599.31 462.4 3595.85 462.4 3592.11 462.4C3588.91 462.4 3585.98 462.133 3583.31 461.6C3580.11 475.467 3577.18 489.333 3574.51 503.2C3572.38 517.067 3570.51 529.6 3568.91 540.8Z" fill="#8AD4EC"/>
<path d="M3863.19 590.4C3856.25 602.133 3847.45 614.933 3836.79 628.8C3826.12 642.133 3814.92 653.6 3803.19 663.2C3791.99 672.8 3781.32 677.6 3771.19 677.6C3754.65 677.6 3741.59 676.8 3731.99 675.2C3722.92 673.067 3715.45 670.133 3709.59 666.4C3699.45 659.467 3691.19 650.4 3684.79 639.2C3678.39 628 3674.65 616.533 3673.59 604.8C3673.05 601.6 3672.79 598.4 3672.79 595.2C3672.79 592 3672.79 589.067 3672.79 586.4C3672.79 554.933 3678.92 527.2 3691.19 503.2C3703.45 479.2 3720.79 464.8 3743.19 460C3750.12 458.933 3755.45 461.867 3759.19 468.8C3762.92 475.2 3764.79 484 3764.79 495.2C3764.79 512.267 3760.25 530.667 3751.19 550.4C3747.45 558.4 3743.45 566.133 3739.19 573.6C3735.45 580.533 3732.25 586.133 3729.59 590.4C3722.65 600.533 3717.32 607.467 3713.59 611.2C3710.39 614.4 3708.79 617.6 3708.79 620.8C3708.79 629.333 3714.12 637.6 3724.79 645.6C3735.45 653.6 3751.99 657.6 3774.39 657.6C3782.92 657.6 3791.72 653.867 3800.79 646.4C3809.85 638.933 3818.65 629.6 3827.19 618.4C3836.25 607.2 3844.25 596 3851.19 584.8C3854.39 579.467 3857.32 576.8 3859.99 576.8C3863.19 576.8 3864.79 579.2 3864.79 584C3864.79 586.133 3864.25 588.267 3863.19 590.4ZM3743.19 489.6C3741.05 486.4 3736.52 487.2 3729.59 492C3723.19 496.267 3717.32 506.4 3711.99 522.4C3708.25 534.133 3706.39 547.733 3706.39 563.2C3706.39 567.467 3706.39 571.733 3706.39 576C3706.92 580.267 3707.45 584.533 3707.99 588.8C3717.05 573.333 3723.45 561.867 3727.19 554.4C3731.45 546.4 3734.65 538.133 3736.79 529.6C3737.85 525.333 3739.45 520 3741.59 513.6C3744.25 507.2 3745.59 501.6 3745.59 496.8C3745.59 493.6 3744.79 491.2 3743.19 489.6Z" fill="#8AD4EC"/>
<path d="M1305.75 1103.75H1290.75V1275H1305.75V1103.75ZM1395.5 1103.75H1378.25L1306.75 1183.25L1381.5 1275H1399.75L1324.5 1182.5L1395.5 1103.75Z" fill="#8D91FA"/>
<path d="M1520.97 1275H1536.72L1479.72 1103.75H1460.97L1403.72 1275H1418.97L1433.97 1228.25H1505.97L1520.97 1275ZM1437.97 1215.5L1470.22 1116L1501.97 1215.5H1437.97Z" fill="#8D91FA"/>
<path d="M1662.08 1275H1680.08L1633.08 1195.5C1657.33 1189.25 1671.33 1175.75 1671.33 1150.25C1671.33 1120 1651.58 1103.75 1610.33 1103.75H1568.83V1275H1583.83V1198.25H1618.08L1662.08 1275ZM1583.83 1186V1116H1609.83C1642.58 1116 1655.33 1127.5 1655.33 1150.25C1655.33 1175.25 1639.58 1186 1612.33 1186H1583.83Z" fill="#8D91FA"/>
<path d="M1731.29 1103.75H1716.29V1275H1800.79L1802.79 1261.5H1731.29V1103.75Z" fill="#8D91FA"/>
<path d="M1874.43 1101C1844.43 1101 1824.18 1118.75 1824.18 1143C1824.18 1167.75 1838.93 1179.5 1872.93 1190C1903.43 1199.5 1913.68 1208 1913.68 1228.75C1913.68 1251.75 1895.93 1265 1871.93 1265C1851.93 1265 1838.68 1257.75 1826.18 1246.75L1817.43 1256.25C1831.43 1269.5 1848.68 1277.75 1872.18 1277.75C1906.68 1277.75 1928.93 1257.5 1928.93 1228.25C1928.93 1198 1910.18 1187 1879.43 1177.5C1848.68 1168.25 1839.43 1160.25 1839.43 1142.75C1839.43 1124.75 1853.93 1113.75 1874.93 1113.75C1890.68 1113.75 1902.18 1118.5 1914.93 1129.5L1923.68 1120C1910.18 1108 1896.68 1101 1874.43 1101Z" fill="#8D91FA"/>
<path d="M2063.44 1275H2081.44L2034.44 1195.5C2058.69 1189.25 2072.69 1175.75 2072.69 1150.25C2072.69 1120 2052.94 1103.75 2011.69 1103.75H1970.19V1275H1985.19V1198.25H2019.44L2063.44 1275ZM1985.19 1186V1116H2011.19C2043.94 1116 2056.69 1127.5 2056.69 1150.25C2056.69 1175.25 2040.94 1186 2013.69 1186H1985.19Z" fill="#8D91FA"/>
<path d="M2227.65 1103.75H2212.4V1220.25C2212.4 1247.75 2200.15 1264.75 2171.4 1264.75C2142.65 1264.75 2130.15 1248 2130.15 1220.25V1103.75H2115.15V1221.5C2115.15 1254.5 2133.4 1277.75 2171.4 1277.75C2208.9 1277.75 2227.65 1254.5 2227.65 1221.5V1103.75Z" fill="#8D91FA"/>
<path d="M2377.74 1275H2392.74V1103.75H2377.74V1178.5H2295.74V1103.75H2280.74V1275H2295.74V1191.25H2377.74V1275Z" fill="#8D91FA"/>
<path d="M2535.22 1103.75H2448.22V1275H2536.97V1262.5H2463.22V1192.5H2523.97V1180H2463.22V1116.25H2533.47L2535.22 1103.75Z" fill="#8D91FA"/>
</svg>
