<svg width="3862" height="3862" viewBox="0 0 3862 3862" fill="none" xmlns="http://www.w3.org/2000/svg">
<g clip-path="url(#clip0_2_14)">
<g opacity="0.5">
<path d="M1231.95 955.672C1133.31 833.886 1059.43 798.243 963.923 806.689C868.419 815.135 860.956 900.692 842.372 981.854C817.922 1088.64 856.479 1162.92 921.742 1250.9C985.684 1337.1 1043.07 1407.8 1150.32 1403.5C1239.01 1399.94 1322.23 1337.47 1344.32 1285.07C1366.41 1232.66 1330.58 1077.46 1231.95 955.672Z" fill="#8AD4EC"/>
<path d="M2219.09 1003.09C2202.73 1158.96 2242.98 1228.94 2316.48 1290.5C2389.99 1352.06 2458.65 1313.97 2529.18 1269.72C2621.98 1211.5 2651.03 1119.02 2667.1 1010.66C2682.84 904.492 2664.15 778.816 2585.27 706.028C2520.04 645.83 2484.69 672.419 2432.02 693.856C2379.34 715.294 2235.46 847.229 2219.09 1003.09Z" fill="#8AD4EC"/>
<path d="M1258.99 1816.17C1242.62 1972.03 1260.68 2000.46 1339.35 2046C1418.02 2091.54 1468.06 2056.06 1595.73 2002.74C1713.67 1953.49 1766.13 1879.68 1884.95 1859.63C2061.45 1829.85 2215.36 1909.81 2360.48 1862.04C2437.8 1836.59 2455.93 1786.32 2461.52 1748.65C2470.03 1691.27 2363.77 1475.22 2247.33 1350.74C2148.33 1244.91 2022.09 1154.72 1981.79 1126.29C1907.54 1073.92 1838.94 1065.75 1742.17 1085.59C1650.28 1104.43 1614.86 1133.44 1545.01 1182.24C1475.15 1231.05 1275.36 1660.3 1258.99 1816.17Z" fill="#8AD4EC"/>
<path d="M1645.09 468.139C1603.61 316.86 1563.55 231.517 1409.96 204.585C1256.38 177.653 1237.35 259.49 1198.39 333.077C1147.14 429.892 1186.21 544.901 1226.48 646.777C1265.93 746.591 1372.42 876.506 1477.12 900.106C1563.71 919.624 1602.35 830.489 1637.25 785.586C1672.15 740.683 1686.57 619.417 1645.09 468.139Z" fill="#8AD4EC"/>
<path d="M2221.3 421.114C2220.38 264.254 2226.77 186.302 2085.39 120.537C1944.01 54.7716 1883.03 144.351 1826.36 205.347C1751.79 285.598 1759.77 406.8 1772.29 515.627C1784.57 622.251 1800.44 787.229 1895.47 837.123C1974.06 878.387 2064.21 802.89 2109.54 768.55C2154.88 734.21 2222.21 577.974 2221.3 421.114Z" fill="#8AD4EC"/>
</g>
<path d="M1301.25 984.644C1202.61 862.858 1128.73 827.215 1033.22 835.661C937.719 844.107 930.256 929.664 911.672 1010.83C887.222 1117.61 925.78 1191.89 991.042 1279.87C1054.98 1366.07 1112.37 1436.77 1219.62 1432.47C1308.31 1428.91 1391.53 1366.44 1413.62 1314.04C1435.71 1261.63 1399.88 1106.43 1301.25 984.644Z" stroke="#8D91FA" stroke-width="15"/>
<path d="M2288.39 1032.06C2272.03 1187.93 2312.28 1257.91 2385.78 1319.47C2459.29 1381.03 2527.95 1342.94 2598.48 1298.69C2691.28 1240.47 2720.33 1147.99 2736.4 1039.63C2752.14 933.464 2733.45 807.789 2654.57 735C2589.34 674.802 2553.99 701.391 2501.32 722.828C2448.64 744.266 2304.76 876.202 2288.39 1032.06Z" stroke="#8D91FA" stroke-width="15"/>
<path d="M1328.29 1845.14C1311.92 2001 1329.98 2029.43 1408.65 2074.97C1487.32 2120.52 1537.36 2085.03 1665.03 2031.71C1782.97 1982.46 1835.43 1908.65 1954.25 1888.6C2130.75 1858.82 2284.66 1938.78 2429.78 1891.01C2507.1 1865.56 2525.23 1815.29 2530.82 1777.62C2539.33 1720.24 2433.07 1504.19 2316.63 1379.71C2217.63 1273.88 2091.39 1183.7 2051.09 1155.27C1976.84 1102.89 1908.24 1094.73 1811.47 1114.56C1719.58 1133.41 1684.16 1162.41 1614.31 1211.22C1544.45 1260.02 1344.66 1689.28 1328.29 1845.14Z" stroke="#8D91FA" stroke-width="15"/>
<path d="M1714.39 497.111C1672.91 345.833 1632.85 260.49 1479.26 233.557C1325.68 206.625 1306.65 288.463 1267.69 362.049C1216.44 458.864 1255.51 573.873 1295.78 675.749C1335.23 775.563 1441.72 905.479 1546.42 929.078C1633.01 948.596 1671.65 859.461 1706.55 814.558C1741.45 769.655 1755.87 648.389 1714.39 497.111Z" stroke="#8D91FA" stroke-width="15"/>
<path d="M2290.6 450.086C2289.68 293.226 2296.07 215.274 2154.69 149.509C2013.31 83.7437 1952.33 173.323 1895.66 234.319C1821.09 314.57 1829.07 435.772 1841.59 544.599C1853.87 651.223 1869.74 816.201 1964.77 866.095C2043.36 907.359 2133.51 831.862 2178.84 797.522C2224.18 763.182 2291.51 606.946 2290.6 450.086Z" stroke="#8D91FA" stroke-width="15"/>
<path d="M630.4 2463.2C622.933 2486.13 608.533 2503.73 587.2 2516C565.867 2528.27 539.2 2534.4 507.2 2534.4C481.6 2534.4 454.933 2532.27 427.2 2528C399.467 2523.2 371.733 2517.33 344 2510.4C337.067 2528.53 332 2548.53 328.8 2570.4C326.133 2591.73 322.667 2614.93 318.4 2640C312.533 2675.2 304.8 2710.93 295.2 2747.2C285.6 2783.47 272.8 2816.53 256.8 2846.4C240.8 2876.27 220 2898.93 194.4 2914.4C183.2 2920.8 172.533 2927.47 162.4 2934.4C152.8 2941.33 141.867 2947.2 129.6 2952C117.867 2956.8 102.667 2959.2 84 2959.2C60 2959.2 41.8667 2954.67 29.6 2945.6C17.8667 2937.07 9.86667 2924.8 5.6 2908.8C1.86667 2892.8 0 2873.87 0 2852C0 2848.27 0.8 2841.33 2.4 2831.2C4.53333 2821.07 6.66667 2810.93 8.8 2800.8C11.4667 2790.67 13.8667 2783.73 16 2780C19.7333 2771.47 26.1333 2760.8 35.2 2748C44.8 2735.2 55.7333 2722.4 68 2709.6C80.2667 2696.8 92.8 2686.13 105.6 2677.6C118.4 2669.07 130.133 2664.8 140.8 2664.8C145.067 2664.8 149.867 2668.27 155.2 2675.2C161.067 2681.6 166.133 2689.07 170.4 2697.6C174.667 2706.13 176.8 2713.33 176.8 2719.2C176.8 2721.33 175.733 2726.4 173.6 2734.4C172 2741.87 168.533 2750.4 163.2 2760C157.867 2769.07 149.867 2777.07 139.2 2784C137.067 2784.53 134.933 2784.8 132.8 2784.8C131.2 2784.8 129.333 2784.8 127.2 2784.8C112.267 2784.8 104.8 2781.87 104.8 2776C104.8 2771.2 109.6 2766.93 119.2 2763.2C128.8 2758.93 136 2756.53 140.8 2756C146.133 2755.47 149.6 2753.33 151.2 2749.6C152.8 2745.33 153.6 2736.27 153.6 2722.4C153.6 2719.73 152.8 2715.73 151.2 2710.4C150.133 2705.07 148.533 2700 146.4 2695.2C144.8 2690.4 142.933 2688 140.8 2688C131.733 2688 122.667 2692 113.6 2700C105.067 2708 97.0667 2717.87 89.6 2729.6C82.1333 2741.33 75.4667 2753.07 69.6 2764.8C63.7333 2776 59.4667 2785.33 56.8 2792.8C55.7333 2796 53.8667 2801.33 51.2 2808.8C48.5333 2815.73 46.1333 2822.93 44 2830.4C41.8667 2837.33 40.8 2842.67 40.8 2846.4C40.8 2853.33 40.5333 2860.53 40 2868C40 2874.93 40 2881.33 40 2887.2C40 2901.6 42.4 2913.33 47.2 2922.4C52.5333 2931.47 64.8 2936 84 2936C100.533 2936 114.133 2933.07 124.8 2927.2C136 2920.8 145.6 2913.33 153.6 2904.8C162.133 2895.73 170.4 2886.93 178.4 2878.4C210.933 2845.33 236.267 2809.07 254.4 2769.6C273.067 2729.6 286.4 2685.07 294.4 2636C298.667 2609.87 303.2 2586.4 308 2565.6C313.333 2544.27 320.267 2524.53 328.8 2506.4C301.6 2498.93 275.467 2491.47 250.4 2484C225.867 2476 203.467 2469.07 183.2 2463.2C172 2459.47 162.4 2456 154.4 2452.8C146.933 2449.07 135.2 2447.2 119.2 2447.2C107.467 2447.2 95.7333 2448.8 84 2452C72.8 2454.67 67.2 2461.6 67.2 2472.8C67.2 2476 66.9333 2479.73 66.4 2484C66.4 2488.27 66.4 2492.53 66.4 2496.8C66.4 2506.93 67.7333 2517.33 70.4 2528C73.0667 2538.13 78.6667 2546.93 87.2 2554.4C95.7333 2561.33 109.067 2565.33 127.2 2566.4C134.667 2566.93 140.533 2565.33 144.8 2561.6C149.6 2557.87 153.6 2554.13 156.8 2550.4C158.933 2545.07 162.933 2542.4 168.8 2542.4C174.133 2542.4 176.8 2546.13 176.8 2553.6C176.8 2555.2 176.533 2556.8 176 2558.4C176 2560 175.733 2561.87 175.2 2564C169.867 2570.4 163.467 2576.53 156 2582.4C149.067 2587.73 139.467 2590.4 127.2 2590.4C118.133 2590.4 107.733 2588.8 96 2585.6C84.8 2581.87 73.8667 2575.47 63.2 2566.4C52.5333 2556.8 44 2543.73 37.6 2527.2C31.7333 2510.13 29.6 2488.53 31.2 2462.4C32.2667 2451.73 36.2667 2441.6 43.2 2432C50.6667 2422.4 59.7333 2414.67 70.4 2408.8C81.6 2402.4 92.5333 2399.2 103.2 2399.2C111.733 2399.2 122.4 2400.53 135.2 2403.2C148 2405.87 161.067 2409.07 174.4 2412.8C188.267 2416.53 200.8 2420.27 212 2424C223.733 2427.73 232.8 2430.67 239.2 2432.8C256.267 2438.13 273.6 2444.8 291.2 2452.8C308.8 2460.27 326.933 2467.73 345.6 2475.2C346.667 2473.6 347.733 2472 348.8 2470.4C350.4 2468.8 351.733 2466.93 352.8 2464.8C358.667 2456.8 364.533 2452.8 370.4 2452.8C373.067 2452.8 374.4 2454.13 374.4 2456.8C374.4 2461.6 370.667 2468 363.2 2476C362.667 2476.53 362.133 2477.33 361.6 2478.4C361.067 2478.93 360.267 2479.73 359.2 2480.8C383.733 2490.4 408.8 2498.67 434.4 2505.6C460 2512.53 486.667 2516 514.4 2516C565.6 2516 597.6 2498.13 610.4 2462.4C610.933 2448.53 613.867 2441.6 619.2 2441.6C621.867 2441.6 624.267 2443.73 626.4 2448C629.067 2452.27 630.4 2457.33 630.4 2463.2Z" fill="#8AD4EC"/>
<path d="M568.994 2507.2C571.66 2509.33 573.26 2513.07 573.794 2518.4C574.86 2523.73 575.394 2529.33 575.394 2535.2C575.394 2542.13 574.594 2549.07 572.994 2556C571.927 2562.93 570.06 2567.73 567.394 2570.4C564.194 2573.6 560.46 2575.2 556.194 2575.2C552.46 2575.2 548.727 2574.4 544.994 2572.8C541.26 2571.2 537.26 2569.33 532.994 2567.2C525.527 2564 521.794 2556.27 521.794 2544C521.794 2538.13 523.127 2532 525.794 2525.6C528.46 2519.2 532.727 2513.07 538.594 2507.2C542.86 2502.93 547.927 2500.8 553.794 2500.8C559.66 2500.8 564.727 2502.93 568.994 2507.2ZM532.194 2843.2C535.394 2840 536.994 2840.53 536.994 2844.8C536.994 2847.47 536.194 2850.93 534.594 2855.2C533.527 2859.47 532.194 2862.67 530.594 2864.8C525.26 2872.27 518.86 2880.53 511.394 2889.6C504.46 2898.67 496.194 2906.4 486.594 2912.8C476.994 2918.67 465.527 2921.6 452.194 2921.6C432.46 2921.6 418.86 2917.07 411.394 2908C403.927 2898.93 400.194 2888 400.194 2875.2C400.194 2869.33 400.727 2863.47 401.794 2857.6C402.86 2851.73 404.194 2845.87 405.794 2840C400.46 2849.6 392.194 2860.8 380.994 2873.6C369.794 2885.87 359.394 2895.73 349.794 2903.2C347.66 2904.8 345.527 2905.6 343.394 2905.6C340.194 2905.6 338.594 2903.73 338.594 2900C338.594 2895.73 340.194 2892 343.394 2888.8C365.794 2865.33 382.86 2846.4 394.594 2832C406.327 2817.07 415.394 2804.53 421.794 2794.4C428.194 2784.27 434.327 2774.93 440.194 2766.4C444.994 2750.93 449.26 2736 452.994 2721.6C457.26 2706.67 463.66 2691.47 472.194 2676C474.86 2671.2 480.194 2668.8 488.194 2668.8C493.527 2668.8 498.327 2670.13 502.594 2672.8C506.86 2675.47 508.994 2680 508.994 2686.4C508.994 2689.6 508.194 2693.33 506.594 2697.6C500.727 2714.13 494.327 2728.27 487.394 2740C480.994 2751.2 472.46 2765.6 461.794 2783.2C450.594 2801.33 441.527 2818.93 434.594 2836C428.194 2853.07 424.994 2867.47 424.994 2879.2C424.994 2886.67 426.594 2892.8 429.794 2897.6C433.527 2902.4 438.86 2904.8 445.794 2904.8C460.727 2905.33 472.194 2902.93 480.194 2897.6C488.194 2891.73 494.86 2886.13 500.194 2880.8C507.127 2873.33 512.994 2866.4 517.794 2860C523.127 2853.6 527.927 2848 532.194 2843.2Z" fill="#8AD4EC"/>
<path d="M699.05 2832.8C692.117 2844.53 683.317 2857.33 672.65 2871.2C661.983 2884.53 650.783 2896 639.05 2905.6C627.85 2915.2 617.183 2920 607.05 2920C590.517 2920 577.45 2919.2 567.85 2917.6C558.783 2915.47 551.317 2912.53 545.45 2908.8C535.317 2901.87 527.05 2892.8 520.65 2881.6C514.25 2870.4 510.517 2858.93 509.45 2847.2C508.917 2844 508.65 2840.8 508.65 2837.6C508.65 2834.4 508.65 2831.47 508.65 2828.8C508.65 2797.33 514.783 2769.6 527.05 2745.6C539.317 2721.6 556.65 2707.2 579.05 2702.4C585.983 2701.33 591.317 2704.27 595.05 2711.2C598.783 2717.6 600.65 2726.4 600.65 2737.6C600.65 2754.67 596.117 2773.07 587.05 2792.8C583.317 2800.8 579.317 2808.53 575.05 2816C571.317 2822.93 568.117 2828.53 565.45 2832.8C558.517 2842.93 553.183 2849.87 549.45 2853.6C546.25 2856.8 544.65 2860 544.65 2863.2C544.65 2871.73 549.983 2880 560.65 2888C571.317 2896 587.85 2900 610.25 2900C618.783 2900 627.583 2896.27 636.65 2888.8C645.717 2881.33 654.517 2872 663.05 2860.8C672.117 2849.6 680.117 2838.4 687.05 2827.2C690.25 2821.87 693.183 2819.2 695.85 2819.2C699.05 2819.2 700.65 2821.6 700.65 2826.4C700.65 2828.53 700.117 2830.67 699.05 2832.8ZM579.05 2732C576.917 2728.8 572.383 2729.6 565.45 2734.4C559.05 2738.67 553.183 2748.8 547.85 2764.8C544.117 2776.53 542.25 2790.13 542.25 2805.6C542.25 2809.87 542.25 2814.13 542.25 2818.4C542.783 2822.67 543.317 2826.93 543.85 2831.2C552.917 2815.73 559.317 2804.27 563.05 2796.8C567.317 2788.8 570.517 2780.53 572.65 2772C573.717 2767.73 575.317 2762.4 577.45 2756C580.117 2749.6 581.45 2744 581.45 2739.2C581.45 2736 580.65 2733.6 579.05 2732Z" fill="#8AD4EC"/>
<path d="M838.763 2887.2C840.896 2885.07 843.829 2884 847.562 2884C851.296 2884 853.163 2885.6 853.163 2888.8C853.163 2892.53 848.896 2898.4 840.362 2906.4C831.829 2914.4 822.496 2920.8 812.362 2925.6C802.229 2930.4 792.629 2933.87 783.562 2936C779.296 2936.53 773.429 2934.93 765.963 2931.2C759.029 2928 754.763 2924.53 753.163 2920.8C751.029 2916 749.429 2910.67 748.362 2904.8C747.296 2898.4 746.763 2891.73 746.763 2884.8C746.763 2868.27 748.629 2851.2 752.362 2833.6C756.096 2816 759.563 2800.8 762.763 2788C756.363 2790.13 749.162 2791.2 741.162 2791.2C733.696 2791.2 727.029 2791.73 721.162 2792.8C717.429 2798.13 714.229 2804.27 711.562 2811.2C708.896 2817.6 705.162 2824.8 700.362 2832.8C691.829 2846.67 682.229 2860.53 671.562 2874.4C661.429 2887.73 651.029 2898.67 640.362 2907.2C629.696 2915.73 619.296 2920 609.162 2920C602.229 2920 598.763 2918.13 598.763 2914.4C598.763 2910.67 603.296 2907.2 612.362 2904C625.162 2899.2 638.229 2889.07 651.562 2873.6C664.896 2858.13 676.896 2842.13 687.562 2825.6C692.896 2817.6 696.363 2810.4 697.963 2804C699.563 2797.07 700.362 2791.73 700.362 2788C700.362 2788 697.962 2785.33 693.162 2780C688.896 2774.13 686.763 2768.53 686.763 2763.2C686.763 2751.47 690.496 2740.8 697.963 2731.2C705.963 2721.6 714.229 2718.13 722.763 2720.8C728.629 2722.4 732.363 2725.07 733.963 2728.8C736.096 2732.53 737.163 2736.53 737.163 2740.8C737.163 2745.6 736.363 2750.67 734.763 2756C733.163 2760.8 731.563 2765.07 729.963 2768.8C731.563 2770.93 735.029 2772 740.362 2772C748.362 2772 757.163 2770.4 766.763 2767.2C773.696 2757.07 780.363 2749.07 786.763 2743.2C793.163 2737.33 799.029 2734.93 804.362 2736C808.096 2736.53 811.563 2737.87 814.763 2740C817.963 2742.13 819.562 2746.13 819.562 2752C819.562 2756.8 817.162 2764 812.362 2773.6C804.362 2788 796.896 2803.73 789.963 2820.8C783.029 2837.33 777.696 2852.53 773.963 2866.4C770.229 2879.73 768.629 2889.07 769.163 2894.4C770.229 2901.33 772.096 2905.87 774.763 2908C777.963 2910.13 781.429 2911.2 785.162 2911.2C787.829 2911.2 790.496 2910.93 793.163 2910.4C796.363 2909.33 799.296 2908.53 801.963 2908C809.963 2905.33 816.629 2902.4 821.963 2899.2C827.296 2896 832.896 2892 838.763 2887.2ZM719.562 2752C719.562 2747.2 717.963 2743.73 714.763 2741.6C714.229 2741.07 713.429 2740.8 712.362 2740.8C709.696 2740.8 707.296 2742.67 705.162 2746.4C703.029 2749.6 701.963 2752.8 701.963 2756C701.963 2758.67 702.229 2761.87 702.763 2765.6C703.829 2768.8 705.696 2769.6 708.362 2768C711.029 2766.4 713.429 2764.27 715.562 2761.6C718.229 2758.93 719.562 2755.73 719.562 2752Z" fill="#8AD4EC"/>
<path d="M1131.76 2888C1122.16 2901.87 1111.5 2912.53 1099.76 2920C1088.56 2926.93 1077.9 2930.4 1067.76 2930.4C1057.63 2930.4 1049.36 2926.93 1042.96 2920C1035.5 2907.2 1030.16 2894.13 1026.96 2880.8C1024.3 2866.93 1021.9 2849.07 1019.76 2827.2C1018.16 2805.33 1014.7 2776 1009.36 2739.2C1009.36 2739.2 1007.76 2737.33 1004.56 2733.6C1001.36 2729.33 997.629 2727.2 993.362 2727.2C990.696 2727.2 987.762 2728.8 984.562 2732C981.362 2734.67 978.163 2740 974.963 2748C966.963 2768.27 960.563 2789.33 955.763 2811.2C951.496 2833.07 947.496 2853.33 943.763 2872C940.029 2890.67 935.496 2905.33 930.162 2916C926.429 2923.47 921.629 2927.2 915.763 2927.2C910.963 2927.2 906.429 2924.8 902.162 2920C902.162 2920 902.429 2915.2 902.963 2905.6C904.029 2895.47 905.363 2883.2 906.963 2868.8C908.563 2853.87 909.896 2839.47 910.963 2825.6C909.896 2826.13 906.962 2829.33 902.162 2835.2C897.362 2840.53 892.029 2845.87 886.162 2851.2C880.296 2856 874.962 2858.13 870.162 2857.6C866.962 2853.87 868.563 2848.27 874.963 2840.8C881.363 2832.8 888.562 2824 896.562 2814.4C905.096 2804.27 910.962 2794.4 914.162 2784.8C921.629 2762.4 926.696 2738.4 929.362 2712.8C932.562 2687.2 936.029 2662.93 939.763 2640C947.763 2590.4 955.763 2546.93 963.763 2509.6C972.296 2472.27 982.429 2443.47 994.163 2423.2C1005.9 2402.4 1020.83 2392 1038.96 2392C1046.43 2392 1052.3 2394.93 1056.56 2400.8C1060.83 2406.13 1062.96 2416.27 1062.96 2431.2C1062.96 2433.33 1062.96 2436 1062.96 2439.2C1062.96 2442.4 1062.7 2445.6 1062.16 2448.8C1058.96 2484.53 1052.3 2524 1042.16 2567.2C1032.03 2609.87 1013.9 2656.27 987.763 2706.4C993.629 2704.8 999.496 2704 1005.36 2704C1016.03 2704 1025.9 2705.87 1034.96 2709.6C1044.03 2712.8 1050.16 2716.53 1053.36 2720.8C1056.56 2725.07 1058.7 2729.87 1059.76 2735.2C1060.83 2740.53 1061.36 2746.67 1061.36 2753.6C1061.36 2766.93 1059.76 2783.47 1056.56 2803.2C1053.9 2822.93 1052.56 2846.13 1052.56 2872.8C1052.56 2881.87 1055.5 2888.8 1061.36 2893.6C1067.76 2897.87 1075.23 2900 1083.76 2900C1091.23 2900 1098.43 2898.4 1105.36 2895.2C1112.3 2892 1117.9 2887.47 1122.16 2881.6C1122.7 2880.53 1124.3 2880 1126.96 2880C1128.56 2880 1129.9 2880.8 1130.96 2882.4C1132.56 2883.47 1132.83 2885.33 1131.76 2888ZM1042.96 2424.8C1042.96 2420 1041.9 2417.6 1039.76 2417.6C1036.56 2417.6 1031.5 2422.13 1024.56 2431.2C1018.16 2439.73 1011.76 2450.93 1005.36 2464.8C998.962 2478.67 993.629 2493.33 989.362 2508.8C982.962 2533.33 977.629 2555.47 973.362 2575.2C969.096 2594.4 965.629 2617.33 962.963 2644C962.429 2652 961.896 2661.07 961.362 2671.2C960.829 2680.8 960.296 2689.07 959.763 2696C959.763 2702.93 959.763 2706.4 959.763 2706.4C967.763 2693.6 976.296 2680.53 985.362 2667.2C994.429 2653.87 1001.9 2638.13 1007.76 2620C1015.76 2596.53 1022.16 2572.27 1026.96 2547.2C1032.3 2521.6 1036.3 2497.87 1038.96 2476C1041.63 2454.13 1042.96 2437.07 1042.96 2424.8Z" fill="#8AD4EC"/>
<path d="M1321.71 2832.8C1314.77 2844.53 1305.97 2857.33 1295.31 2871.2C1284.64 2884.53 1273.44 2896 1261.71 2905.6C1250.51 2915.2 1239.84 2920 1229.71 2920C1213.17 2920 1200.11 2919.2 1190.51 2917.6C1181.44 2915.47 1173.97 2912.53 1168.11 2908.8C1157.97 2901.87 1149.71 2892.8 1143.31 2881.6C1136.91 2870.4 1133.17 2858.93 1132.11 2847.2C1131.57 2844 1131.31 2840.8 1131.31 2837.6C1131.31 2834.4 1131.31 2831.47 1131.31 2828.8C1131.31 2797.33 1137.44 2769.6 1149.71 2745.6C1161.97 2721.6 1179.31 2707.2 1201.71 2702.4C1208.64 2701.33 1213.97 2704.27 1217.71 2711.2C1221.44 2717.6 1223.31 2726.4 1223.31 2737.6C1223.31 2754.67 1218.77 2773.07 1209.71 2792.8C1205.97 2800.8 1201.97 2808.53 1197.71 2816C1193.97 2822.93 1190.77 2828.53 1188.11 2832.8C1181.17 2842.93 1175.84 2849.87 1172.11 2853.6C1168.91 2856.8 1167.31 2860 1167.31 2863.2C1167.31 2871.73 1172.64 2880 1183.31 2888C1193.97 2896 1210.51 2900 1232.91 2900C1241.44 2900 1250.24 2896.27 1259.31 2888.8C1268.37 2881.33 1277.17 2872 1285.71 2860.8C1294.77 2849.6 1302.77 2838.4 1309.71 2827.2C1312.91 2821.87 1315.84 2819.2 1318.51 2819.2C1321.71 2819.2 1323.31 2821.6 1323.31 2826.4C1323.31 2828.53 1322.77 2830.67 1321.71 2832.8ZM1201.71 2732C1199.57 2728.8 1195.04 2729.6 1188.11 2734.4C1181.71 2738.67 1175.84 2748.8 1170.51 2764.8C1166.77 2776.53 1164.91 2790.13 1164.91 2805.6C1164.91 2809.87 1164.91 2814.13 1164.91 2818.4C1165.44 2822.67 1165.97 2826.93 1166.51 2831.2C1175.57 2815.73 1181.97 2804.27 1185.71 2796.8C1189.97 2788.8 1193.17 2780.53 1195.31 2772C1196.37 2767.73 1197.97 2762.4 1200.11 2756C1202.77 2749.6 1204.11 2744 1204.11 2739.2C1204.11 2736 1203.31 2733.6 1201.71 2732Z" fill="#8AD4EC"/>
<path d="M1449.42 2607.2C1445.69 2607.2 1441.95 2606.67 1438.22 2605.6C1435.02 2604 1431.82 2602.13 1428.62 2600C1421.69 2596.8 1418.22 2589.87 1418.22 2579.2C1418.22 2574.4 1419.29 2569.07 1421.42 2563.2C1424.09 2557.33 1428.09 2551.73 1433.42 2546.4C1437.15 2542.67 1441.69 2540.8 1447.02 2540.8C1451.82 2540.8 1456.35 2542.67 1460.62 2546.4C1462.75 2548.53 1464.09 2552 1464.62 2556.8C1465.69 2561.07 1466.22 2565.87 1466.22 2571.2C1466.22 2577.6 1465.69 2584 1464.62 2590.4C1463.55 2596.27 1461.69 2600.53 1459.02 2603.2C1455.29 2605.87 1452.09 2607.2 1449.42 2607.2ZM1367.82 2921.6C1348.09 2921.6 1334.49 2917.07 1327.02 2908C1319.55 2898.93 1315.82 2888 1315.82 2875.2C1315.82 2869.33 1316.35 2863.47 1317.42 2857.6C1318.49 2851.73 1319.82 2845.87 1321.42 2840C1316.09 2849.6 1307.82 2860.8 1296.62 2873.6C1285.42 2885.87 1275.02 2895.73 1265.42 2903.2C1263.29 2904.8 1261.15 2905.6 1259.02 2905.6C1255.82 2905.6 1254.22 2903.73 1254.22 2900C1254.22 2895.73 1255.82 2892 1259.02 2888.8C1281.42 2865.33 1298.49 2846.4 1310.22 2832C1321.95 2817.07 1331.02 2804.53 1337.42 2794.4C1343.82 2784.27 1349.95 2774.93 1355.82 2766.4C1360.62 2750.93 1364.89 2736 1368.62 2721.6C1372.89 2706.67 1379.29 2691.47 1387.82 2676C1390.49 2671.2 1395.82 2668.8 1403.82 2668.8C1409.15 2668.8 1413.95 2670.13 1418.22 2672.8C1422.49 2675.47 1424.62 2680 1424.62 2686.4C1424.62 2689.6 1423.82 2693.33 1422.22 2697.6C1416.35 2714.13 1409.95 2728.27 1403.02 2740C1396.62 2751.2 1388.09 2765.6 1377.42 2783.2C1366.22 2801.33 1357.15 2818.93 1350.22 2836C1343.82 2853.07 1340.62 2867.47 1340.62 2879.2C1340.62 2886.67 1342.22 2892.8 1345.42 2897.6C1349.15 2902.4 1354.49 2904.8 1361.42 2904.8C1376.35 2905.33 1387.82 2902.93 1395.82 2897.6C1403.82 2891.73 1410.49 2886.13 1415.82 2880.8C1422.75 2873.33 1428.62 2866.4 1433.42 2860C1438.75 2853.6 1443.55 2848 1447.82 2843.2C1451.02 2840 1452.62 2840.53 1452.62 2844.8C1452.62 2847.47 1451.82 2850.93 1450.22 2855.2C1449.15 2859.47 1447.82 2862.67 1446.22 2864.8C1440.89 2872.27 1434.49 2880.53 1427.02 2889.6C1420.09 2898.67 1411.82 2906.4 1402.22 2912.8C1392.62 2918.67 1381.15 2921.6 1367.82 2921.6Z" fill="#8AD4EC"/>
<path d="M1724.92 2888.8C1723.32 2892 1718.25 2897.87 1709.72 2906.4C1701.72 2914.4 1691.59 2919.2 1679.32 2920.8C1670.79 2921.87 1664.65 2917.07 1660.92 2906.4C1657.72 2895.2 1656.12 2882.4 1656.12 2868C1656.12 2862.13 1656.39 2856.27 1656.92 2850.4C1657.45 2844 1658.25 2838.13 1659.32 2832.8C1660.39 2826.93 1661.45 2821.33 1662.52 2816C1663.59 2810.67 1664.12 2806.13 1664.12 2802.4C1664.12 2793.33 1660.65 2789.87 1653.72 2792C1648.92 2797.87 1644.39 2806.67 1640.12 2818.4C1636.39 2830.13 1633.19 2838.93 1630.52 2844.8C1624.65 2858.13 1619.85 2869.33 1616.12 2878.4C1612.39 2887.47 1607.59 2892 1601.72 2892C1596.92 2892 1594.52 2887.47 1594.52 2878.4C1594.52 2870.93 1595.59 2863.2 1597.72 2855.2C1599.85 2847.2 1600.92 2843.2 1600.92 2843.2C1603.59 2835.73 1605.99 2827.47 1608.12 2818.4C1610.79 2808.8 1612.92 2800.53 1614.52 2793.6C1616.12 2786.13 1616.92 2782.4 1616.92 2782.4C1616.92 2781.33 1616.92 2779.73 1616.92 2777.6C1617.45 2775.47 1617.72 2773.33 1617.72 2771.2C1617.72 2766.93 1616.92 2762.93 1615.32 2759.2C1614.25 2755.47 1611.05 2753.33 1605.72 2752.8C1602.52 2752.27 1597.19 2755.47 1589.72 2762.4C1582.79 2768.8 1575.59 2776.8 1568.12 2786.4C1561.19 2795.47 1555.59 2804 1551.32 2812C1544.39 2826.4 1539.59 2841.07 1536.92 2856C1534.25 2870.93 1531.85 2884.8 1529.72 2897.6C1528.12 2909.87 1525.19 2920 1520.92 2928C1519.32 2931.2 1516.12 2932.8 1511.32 2932.8C1507.59 2932.8 1503.59 2931.73 1499.32 2929.6C1495.59 2926.93 1493.72 2924 1493.72 2920.8C1494.79 2911.2 1496.92 2899.73 1500.12 2886.4C1503.85 2873.07 1507.85 2857.07 1512.12 2838.4C1513.72 2832 1515.05 2824.53 1516.12 2816C1517.19 2807.47 1517.99 2801.07 1518.52 2796.8V2795.2C1518.52 2787.73 1515.05 2784 1508.12 2784C1505.45 2784 1502.52 2784.8 1499.32 2786.4C1489.19 2794.93 1480.65 2804.27 1473.72 2814.4C1466.79 2824.53 1461.19 2833.33 1456.92 2840.8C1452.12 2848.27 1447.85 2852.8 1444.12 2854.4C1442.52 2854.93 1441.72 2853.33 1441.72 2849.6C1441.72 2847.47 1441.99 2845.07 1442.52 2842.4C1443.05 2839.73 1444.39 2837.07 1446.52 2834.4C1451.32 2829.6 1456.39 2821.87 1461.72 2811.2C1467.05 2800.53 1472.65 2789.6 1478.52 2778.4C1484.92 2766.67 1491.85 2756.8 1499.32 2748.8C1507.32 2740.27 1515.85 2736 1524.92 2736C1530.25 2736 1535.59 2739.73 1540.92 2747.2C1546.79 2754.67 1550.25 2764.27 1551.32 2776C1560.39 2768.53 1568.92 2760.53 1576.92 2752C1584.92 2742.93 1594.25 2734.93 1604.92 2728C1609.19 2725.87 1613.72 2724.8 1618.52 2724.8C1626.52 2724.8 1631.85 2727.2 1634.52 2732C1638.25 2736.8 1640.39 2743.73 1640.92 2752.8C1641.45 2761.87 1642.25 2766.67 1643.32 2767.2C1644.39 2767.73 1646.79 2766.13 1650.52 2762.4C1654.79 2758.13 1660.65 2756.53 1668.12 2757.6C1670.79 2757.6 1674.52 2759.2 1679.32 2762.4C1684.12 2765.6 1686.52 2769.6 1686.52 2774.4C1686.52 2781.33 1685.99 2789.87 1684.92 2800C1683.85 2809.6 1682.52 2819.73 1680.92 2830.4C1680.39 2832.53 1680.12 2835.47 1680.12 2839.2C1680.12 2842.4 1680.12 2846.13 1680.12 2850.4C1680.12 2857.33 1680.65 2864.8 1681.72 2872.8C1683.32 2880.27 1686.79 2885.87 1692.12 2889.6C1693.72 2891.2 1695.85 2892 1698.52 2892C1704.39 2892 1712.12 2886.93 1721.72 2876.8C1723.32 2875.2 1724.65 2874.4 1725.72 2874.4C1727.32 2874.4 1728.12 2876 1728.12 2879.2C1728.12 2883.47 1727.05 2886.67 1724.92 2888.8Z" fill="#8AD4EC"/>
<path d="M2149.98 2536C2145.18 2549.33 2138.25 2560.8 2129.18 2570.4C2120.11 2579.47 2106.51 2584 2088.38 2584C2079.85 2584 2072.11 2582.4 2065.18 2579.2C2058.25 2575.47 2052.65 2569.33 2048.38 2560.8C2045.18 2554.93 2043.58 2548.53 2043.58 2541.6C2043.58 2533.07 2045.71 2525.33 2049.98 2518.4C2054.78 2511.47 2061.45 2507.73 2069.98 2507.2C2071.05 2507.2 2072.11 2507.2 2073.18 2507.2C2074.78 2506.67 2075.85 2506.4 2076.38 2506.4C2084.91 2506.4 2091.58 2509.6 2096.38 2516C2097.98 2518.13 2098.78 2520.27 2098.78 2522.4C2098.78 2526.13 2096.65 2530.13 2092.38 2534.4C2088.65 2538.13 2084.91 2542.13 2081.18 2546.4C2077.98 2550.67 2077.18 2555.47 2078.78 2560.8C2081.98 2570.4 2087.85 2575.2 2096.38 2575.2C2104.38 2575.2 2112.91 2570.93 2121.98 2562.4C2131.58 2553.33 2139.05 2540.8 2144.38 2524.8C2145.98 2521.6 2146.78 2517.87 2146.78 2513.6C2146.78 2505.6 2143.58 2497.33 2137.18 2488.8C2130.78 2480.27 2122.51 2474.13 2112.38 2470.4C2108.11 2468.8 2103.31 2467.47 2097.98 2466.4C2093.18 2465.33 2088.38 2464.8 2083.58 2464.8C2064.38 2464.8 2045.45 2470.4 2026.78 2481.6C2008.11 2492.8 1995.31 2508.27 1988.38 2528C1985.71 2534.93 1983.85 2541.6 1982.78 2548C1981.71 2554.4 1981.18 2560.27 1981.18 2565.6C1981.18 2581.07 1985.18 2594.13 1993.18 2604.8C2001.18 2615.47 2011.31 2625.07 2023.58 2633.6C2036.38 2642.13 2049.71 2650.93 2063.58 2660C2077.45 2668.53 2090.51 2678.4 2102.78 2689.6C2115.58 2700.8 2125.98 2714.4 2133.98 2730.4C2141.98 2746.4 2145.98 2766.13 2145.98 2789.6C2145.98 2802.93 2144.38 2817.87 2141.18 2834.4C2137.98 2850.93 2132.65 2869.33 2125.18 2889.6C2116.11 2914.13 2102.51 2936.27 2084.38 2956C2066.78 2976.27 2046.25 2992.27 2022.78 3004C1999.85 3015.73 1975.58 3021.6 1949.98 3021.6C1932.38 3021.6 1914.78 3018.4 1897.18 3012C1871.05 3002.4 1853.45 2990.13 1844.38 2975.2C1834.78 2960.8 1829.98 2946.13 1829.98 2931.2C1829.98 2921.07 1831.31 2911.47 1833.98 2902.4C1836.65 2893.33 1839.05 2885.33 1841.18 2878.4C1844.91 2867.73 1852.38 2856.8 1863.58 2845.6C1875.31 2834.4 1888.38 2825.07 1902.78 2817.6C1917.18 2809.6 1930.51 2805.6 1942.78 2805.6C1948.11 2805.6 1953.18 2806.4 1957.98 2808C1968.11 2810.67 1973.18 2821.33 1973.18 2840C1973.18 2845.33 1972.65 2850.67 1971.58 2856C1970.51 2861.33 1968.91 2866.93 1966.78 2872.8C1963.05 2882.93 1957.45 2891.2 1949.98 2897.6C1943.05 2904 1933.71 2907.2 1921.98 2907.2C1916.11 2907.2 1910.51 2906.93 1905.18 2906.4C1900.38 2905.33 1896.65 2902.67 1893.98 2898.4C1893.45 2897.33 1892.91 2896.27 1892.38 2895.2C1892.38 2894.13 1892.38 2893.07 1892.38 2892C1892.38 2883.47 1896.65 2876.27 1905.18 2870.4C1909.45 2867.2 1913.45 2867.2 1917.18 2870.4C1920.91 2873.6 1924.65 2877.07 1928.38 2880.8C1932.65 2884 1937.18 2885.07 1941.98 2884C1950.51 2881.87 1956.11 2877.07 1958.78 2869.6C1961.45 2862.13 1962.78 2853.87 1962.78 2844.8C1962.78 2842.13 1962.78 2839.47 1962.78 2836.8C1962.78 2834.13 1962.51 2831.47 1961.98 2828.8C1961.45 2819.73 1956.91 2815.2 1948.38 2815.2C1941.98 2815.2 1933.98 2817.87 1924.38 2823.2C1915.31 2828.53 1905.98 2835.2 1896.38 2843.2C1887.31 2850.67 1879.31 2858.4 1872.38 2866.4C1865.45 2873.87 1861.18 2879.73 1859.58 2884C1854.78 2897.33 1852.38 2909.87 1852.38 2921.6C1852.38 2949.87 1867.31 2969.6 1897.18 2980.8C1900.38 2981.87 1904.11 2982.4 1908.38 2982.4C1919.05 2982.4 1933.45 2980 1951.58 2975.2C1970.25 2970.4 1989.98 2962.67 2010.78 2952C2031.58 2941.33 2051.05 2926.93 2069.18 2908.8C2087.31 2890.67 2101.18 2868.27 2110.78 2841.6C2115.58 2828.8 2119.05 2817.07 2121.18 2806.4C2123.31 2795.73 2124.38 2785.87 2124.38 2776.8C2124.38 2756.53 2119.85 2739.73 2110.78 2726.4C2102.25 2712.53 2090.78 2701.07 2076.38 2692C2062.51 2682.93 2047.85 2674.67 2032.38 2667.2C2016.91 2659.73 2001.98 2652 1987.58 2644C1973.71 2635.47 1962.25 2625.6 1953.18 2614.4C1944.65 2602.67 1940.38 2588 1940.38 2570.4C1940.38 2564 1940.91 2557.07 1941.98 2549.6C1943.58 2541.6 1945.98 2533.33 1949.18 2524.8C1959.85 2494.93 1975.31 2473.6 1995.58 2460.8C2016.38 2448 2038.25 2441.6 2061.18 2441.6C2070.78 2441.6 2080.38 2442.67 2089.98 2444.8C2099.58 2446.4 2108.91 2448.8 2117.98 2452C2133.45 2457.33 2143.85 2464 2149.18 2472C2155.05 2480 2157.98 2488.8 2157.98 2498.4C2157.98 2504.27 2157.18 2510.4 2155.58 2516.8C2154.51 2522.67 2152.65 2529.07 2149.98 2536Z" fill="#8AD4EC"/>
<path d="M2450.16 2868C2451.76 2866.4 2453.9 2865.6 2456.56 2865.6C2460.3 2865.6 2462.16 2867.47 2462.16 2871.2C2462.16 2873.33 2460.83 2876.53 2458.16 2880.8C2456.03 2885.07 2451.23 2890.13 2443.76 2896C2436.3 2902.4 2428.56 2908.27 2420.56 2913.6C2413.1 2918.93 2402.7 2921.6 2389.36 2921.6C2374.96 2921.6 2363.5 2918.93 2354.96 2913.6C2346.96 2908.27 2341.1 2902.4 2337.36 2896C2334.16 2889.07 2332.03 2883.73 2330.96 2880C2324.56 2884.8 2317.9 2891.2 2310.96 2899.2C2304.56 2906.67 2295.23 2913.6 2282.96 2920C2270.7 2925.87 2253.1 2928.8 2230.16 2928.8C2217.36 2928.8 2205.63 2925.87 2194.96 2920C2184.83 2913.6 2179.76 2900 2179.76 2879.2C2179.76 2873.33 2180.03 2867.2 2180.56 2860.8C2181.63 2853.87 2183.23 2846.4 2185.36 2838.4C2191.76 2813.33 2199.23 2793.6 2207.76 2779.2C2216.3 2764.8 2229.1 2754.13 2246.16 2747.2C2256.83 2742.93 2269.9 2738.93 2285.36 2735.2C2300.83 2731.47 2314.43 2728.27 2326.16 2725.6C2329.9 2724.53 2333.1 2721.07 2335.76 2715.2C2338.96 2708.8 2342.43 2702.93 2346.16 2697.6C2348.3 2694.93 2350.7 2692.8 2353.36 2691.2C2356.03 2689.07 2358.96 2688 2362.16 2688C2364.83 2688 2368.3 2689.33 2372.56 2692C2376.3 2694.67 2378.7 2699.73 2379.76 2707.2C2381.36 2714.67 2382.16 2721.6 2382.16 2728C2381.63 2731.2 2380.3 2735.2 2378.16 2740C2376.56 2744.27 2375.23 2749.07 2374.16 2754.4C2373.1 2761.33 2370.43 2771.2 2366.16 2784C2361.9 2796.8 2359.76 2807.47 2359.76 2816C2359.76 2823.47 2359.23 2832.8 2358.16 2844C2357.1 2854.67 2357.1 2862.13 2358.16 2866.4C2364.03 2879.2 2372.3 2887.73 2382.96 2892C2393.63 2895.73 2402.96 2896.8 2410.96 2895.2C2416.83 2894.13 2423.5 2890.67 2430.96 2884.8C2438.43 2878.93 2444.83 2873.33 2450.16 2868ZM2320.56 2776.8C2319.5 2772.53 2316.83 2768 2312.56 2763.2C2308.83 2758.4 2304.03 2756 2298.16 2756C2297.1 2756 2294.96 2756.53 2291.76 2757.6C2282.7 2760.8 2273.1 2766.93 2262.96 2776C2252.83 2784.53 2244.03 2795.73 2236.56 2809.6C2229.1 2823.47 2224.83 2839.73 2223.76 2858.4C2223.76 2863.73 2225.36 2870.67 2228.56 2879.2C2232.3 2887.73 2237.1 2894.93 2242.96 2900.8C2248.83 2906.67 2254.7 2908.27 2260.56 2905.6C2273.36 2900.27 2284.03 2892.8 2292.56 2883.2C2301.63 2873.07 2309.1 2860.8 2314.96 2846.4C2317.63 2839.47 2319.5 2832.27 2320.56 2824.8C2322.16 2816.8 2322.96 2809.33 2322.96 2802.4C2322.96 2796 2322.7 2790.67 2322.16 2786.4C2321.63 2781.6 2321.1 2778.4 2320.56 2776.8Z" fill="#8AD4EC"/>
<path d="M2707.73 2888.8C2706.13 2892 2701.06 2897.87 2692.53 2906.4C2684.53 2914.4 2674.4 2919.2 2662.13 2920.8C2653.6 2921.87 2647.46 2917.07 2643.73 2906.4C2640.53 2895.2 2638.93 2882.4 2638.93 2868C2638.93 2862.13 2639.2 2856.27 2639.73 2850.4C2640.26 2844 2641.06 2838.13 2642.13 2832.8C2643.2 2826.93 2644.26 2821.33 2645.33 2816C2646.4 2810.67 2646.93 2806.13 2646.93 2802.4C2646.93 2793.33 2643.46 2789.87 2636.53 2792C2631.73 2797.87 2627.2 2806.67 2622.93 2818.4C2619.2 2830.13 2616 2838.93 2613.33 2844.8C2607.46 2858.13 2602.66 2869.33 2598.93 2878.4C2595.2 2887.47 2590.4 2892 2584.53 2892C2579.73 2892 2577.33 2887.47 2577.33 2878.4C2577.33 2870.93 2578.4 2863.2 2580.53 2855.2C2582.66 2847.2 2583.73 2843.2 2583.73 2843.2C2586.4 2835.73 2588.8 2827.47 2590.93 2818.4C2593.6 2808.8 2595.73 2800.53 2597.33 2793.6C2598.93 2786.13 2599.73 2782.4 2599.73 2782.4C2599.73 2781.33 2599.73 2779.73 2599.73 2777.6C2600.26 2775.47 2600.53 2773.33 2600.53 2771.2C2600.53 2766.93 2599.73 2762.93 2598.13 2759.2C2597.06 2755.47 2593.86 2753.33 2588.53 2752.8C2585.33 2752.27 2580 2755.47 2572.53 2762.4C2565.6 2768.8 2558.4 2776.8 2550.93 2786.4C2544 2795.47 2538.4 2804 2534.13 2812C2527.2 2826.4 2522.4 2841.07 2519.73 2856C2517.06 2870.93 2514.66 2884.8 2512.53 2897.6C2510.93 2909.87 2508 2920 2503.73 2928C2502.13 2931.2 2498.93 2932.8 2494.13 2932.8C2490.4 2932.8 2486.4 2931.73 2482.13 2929.6C2478.4 2926.93 2476.53 2924 2476.53 2920.8C2477.6 2911.2 2479.73 2899.73 2482.93 2886.4C2486.66 2873.07 2490.66 2857.07 2494.93 2838.4C2496.53 2832 2497.86 2824.53 2498.93 2816C2500 2807.47 2500.8 2801.07 2501.33 2796.8V2795.2C2501.33 2787.73 2497.86 2784 2490.93 2784C2488.26 2784 2485.33 2784.8 2482.13 2786.4C2472 2794.93 2463.46 2804.27 2456.53 2814.4C2449.6 2824.53 2444 2833.33 2439.73 2840.8C2434.93 2848.27 2430.66 2852.8 2426.93 2854.4C2425.33 2854.93 2424.53 2853.33 2424.53 2849.6C2424.53 2847.47 2424.8 2845.07 2425.33 2842.4C2425.86 2839.73 2427.2 2837.07 2429.33 2834.4C2434.13 2829.6 2439.2 2821.87 2444.53 2811.2C2449.86 2800.53 2455.46 2789.6 2461.33 2778.4C2467.73 2766.67 2474.66 2756.8 2482.13 2748.8C2490.13 2740.27 2498.66 2736 2507.73 2736C2513.06 2736 2518.4 2739.73 2523.73 2747.2C2529.6 2754.67 2533.06 2764.27 2534.13 2776C2543.2 2768.53 2551.73 2760.53 2559.73 2752C2567.73 2742.93 2577.06 2734.93 2587.73 2728C2592 2725.87 2596.53 2724.8 2601.33 2724.8C2609.33 2724.8 2614.66 2727.2 2617.33 2732C2621.06 2736.8 2623.2 2743.73 2623.73 2752.8C2624.26 2761.87 2625.06 2766.67 2626.13 2767.2C2627.2 2767.73 2629.6 2766.13 2633.33 2762.4C2637.6 2758.13 2643.46 2756.53 2650.93 2757.6C2653.6 2757.6 2657.33 2759.2 2662.13 2762.4C2666.93 2765.6 2669.33 2769.6 2669.33 2774.4C2669.33 2781.33 2668.8 2789.87 2667.73 2800C2666.66 2809.6 2665.33 2819.73 2663.73 2830.4C2663.2 2832.53 2662.93 2835.47 2662.93 2839.2C2662.93 2842.4 2662.93 2846.13 2662.93 2850.4C2662.93 2857.33 2663.46 2864.8 2664.53 2872.8C2666.13 2880.27 2669.6 2885.87 2674.93 2889.6C2676.53 2891.2 2678.66 2892 2681.33 2892C2687.2 2892 2694.93 2886.93 2704.53 2876.8C2706.13 2875.2 2707.46 2874.4 2708.53 2874.4C2710.13 2874.4 2710.93 2876 2710.93 2879.2C2710.93 2883.47 2709.86 2886.67 2707.73 2888.8Z" fill="#8AD4EC"/>
<path d="M2928.65 2614.4C2928.65 2614.4 2928.65 2616.27 2928.65 2620C2929.18 2623.73 2928.12 2628.27 2925.45 2633.6C2922.78 2638.93 2916.92 2644.27 2907.85 2649.6C2904.65 2651.73 2898.78 2653.33 2890.25 2654.4C2881.72 2655.47 2872.12 2656.27 2861.45 2656.8C2855.58 2672.27 2849.18 2688 2842.25 2704C2835.32 2719.47 2828.12 2734.13 2820.65 2748C2809.45 2769.33 2799.85 2785.07 2791.85 2795.2C2784.38 2805.33 2778.52 2813.07 2774.25 2818.4C2769.98 2823.2 2767.05 2829.07 2765.45 2836C2764.92 2839.2 2764.38 2842.13 2763.85 2844.8C2763.85 2847.47 2763.85 2850.13 2763.85 2852.8C2763.85 2872.53 2769.45 2886.93 2780.65 2896C2792.38 2905.07 2803.58 2909.6 2814.25 2909.6C2826.52 2909.6 2838.78 2905.33 2851.05 2896.8C2863.32 2887.73 2873.45 2879.47 2881.45 2872C2887.85 2866.67 2892.65 2864 2895.85 2864C2897.98 2864 2899.05 2865.07 2899.05 2867.2C2899.05 2870.93 2896.12 2876.8 2890.25 2884.8C2887.05 2889.07 2881.72 2894.93 2874.25 2902.4C2866.78 2909.87 2857.45 2916.8 2846.25 2923.2C2835.05 2929.07 2822.52 2932 2808.65 2932C2780.92 2932 2762.25 2925.6 2752.65 2912.8C2743.58 2900 2739.05 2878.67 2739.05 2848.8C2739.05 2825.33 2741.45 2796.53 2746.25 2762.4C2751.05 2727.73 2758.52 2691.2 2768.65 2652.8C2765.98 2652.8 2763.32 2652.8 2760.65 2652.8C2757.98 2652.27 2755.58 2652 2753.45 2652C2746.52 2652 2741.18 2653.07 2737.45 2655.2C2734.25 2656.8 2731.58 2657.6 2729.45 2657.6C2724.12 2657.6 2721.45 2653.6 2721.45 2645.6C2721.45 2636.53 2723.85 2629.6 2728.65 2624.8C2732.38 2621.07 2738.78 2619.2 2747.85 2619.2C2754.78 2619.2 2764.12 2620.53 2775.85 2623.2C2776.92 2620 2777.98 2617.07 2779.05 2614.4C2780.12 2611.73 2780.92 2609.07 2781.45 2606.4C2782.52 2601.07 2783.58 2596.8 2784.65 2593.6C2785.72 2590.4 2787.05 2586.4 2788.65 2581.6C2797.72 2554.4 2807.58 2528.27 2818.25 2503.2C2828.92 2478.13 2844.38 2455.73 2864.65 2436C2868.38 2430.13 2873.45 2427.2 2879.85 2427.2C2884.65 2427.2 2888.92 2429.33 2892.65 2433.6C2896.38 2437.33 2897.98 2441.87 2897.45 2447.2C2897.45 2447.2 2897.18 2453.87 2896.65 2467.2C2896.12 2480.53 2895.05 2496.8 2893.45 2516C2891.85 2534.67 2889.45 2552.53 2886.25 2569.6C2884.65 2579.73 2882.25 2590.67 2879.05 2602.4C2876.38 2613.6 2872.92 2625.07 2868.65 2636.8C2871.85 2637.33 2874.78 2637.87 2877.45 2638.4C2880.65 2638.4 2883.58 2638.4 2886.25 2638.4C2894.25 2638.4 2900.38 2637.33 2904.65 2635.2C2909.45 2632.53 2912.12 2629.87 2912.65 2627.2C2913.72 2624.53 2914.25 2623.2 2914.25 2623.2C2914.25 2612.53 2916.92 2607.2 2922.25 2607.2C2924.92 2607.2 2927.05 2609.6 2928.65 2614.4ZM2871.85 2480.8C2868.65 2480.27 2863.58 2486.4 2856.65 2499.2C2849.72 2512 2842.25 2528.8 2834.25 2549.6C2826.25 2570.4 2818.52 2592.53 2811.05 2616C2810.52 2618.13 2809.98 2620.27 2809.45 2622.4C2808.92 2624 2808.38 2625.87 2807.85 2628C2811.58 2629.07 2815.32 2629.87 2819.05 2630.4C2822.78 2630.93 2826.78 2631.73 2831.05 2632.8C2833.18 2633.33 2835.58 2633.6 2838.25 2633.6C2840.92 2633.6 2843.32 2634.13 2845.45 2635.2C2847.58 2629.33 2849.45 2624.27 2851.05 2620C2852.65 2615.2 2854.25 2610.93 2855.85 2607.2C2861.72 2587.47 2866.52 2567.2 2870.25 2546.4C2873.98 2525.6 2875.85 2509.33 2875.85 2497.6C2875.85 2488 2874.52 2482.4 2871.85 2480.8ZM2836.65 2656.8H2822.25C2818.52 2656.8 2814.78 2656.8 2811.05 2656.8C2807.85 2656.8 2804.65 2656.53 2801.45 2656C2796.65 2676.27 2791.85 2698.13 2787.05 2721.6C2782.78 2744.53 2779.32 2765.07 2776.65 2783.2C2783.05 2775.73 2789.72 2765.07 2796.65 2751.2C2803.58 2737.33 2810.52 2722.13 2817.45 2705.6C2824.38 2688.53 2830.78 2672.27 2836.65 2656.8Z" fill="#8AD4EC"/>
<path d="M3136.52 2868.8C3121.59 2888 3107.99 2902.13 3095.73 2911.2C3083.99 2919.73 3071.99 2925.07 3059.73 2927.2C3047.99 2929.33 3034.66 2930.4 3019.73 2930.4C3006.39 2930.4 2993.86 2929.33 2982.12 2927.2C2970.39 2925.07 2961.86 2922.13 2956.52 2918.4C2954.92 2929.07 2953.33 2941.87 2951.73 2956.8C2950.66 2972.27 2947.19 2994.93 2941.32 3024.8C2932.79 3066.4 2921.06 3100.8 2906.12 3128C2891.72 3155.2 2873.33 3170.4 2850.93 3173.6C2842.93 3174.67 2837.33 3170.93 2834.12 3162.4C2830.92 3154.4 2829.32 3144.53 2829.32 3132.8C2829.32 3122.13 2830.39 3110.93 2832.52 3099.2C2834.66 3087.47 2837.06 3076.8 2839.73 3067.2C2846.13 3045.33 2851.46 3028.8 2855.73 3017.6C2859.46 3006.93 2862.92 2998.13 2866.12 2991.2C2868.79 2984.8 2871.73 2977.33 2874.93 2968.8C2878.13 2960.8 2882.13 2949.07 2886.93 2933.6C2888.53 2928.27 2890.39 2922.13 2892.52 2915.2C2895.19 2907.73 2898.12 2899.73 2901.32 2891.2C2900.79 2886.93 2899.73 2884 2898.12 2882.4C2896.52 2880.8 2895.73 2878.4 2895.73 2875.2C2895.73 2865.6 2900.52 2858.13 2910.12 2852.8C2920.26 2847.47 2928.26 2845.6 2934.12 2847.2C2935.19 2836.53 2935.99 2823.47 2936.52 2808C2937.06 2792.53 2938.13 2777.07 2939.73 2761.6C2941.86 2745.6 2944.79 2731.47 2948.52 2719.2C2952.26 2706.93 2957.33 2698.4 2963.73 2693.6C2967.99 2692.53 2971.46 2692 2974.12 2692C2982.13 2692 2987.19 2694.4 2989.32 2699.2C2989.86 2700.27 2990.12 2702.4 2990.12 2705.6V2712.8C2990.12 2716.53 2990.92 2718.93 2992.52 2720C2999.46 2723.2 3008.26 2724.8 3018.93 2724.8C3029.59 2724.8 3038.39 2726.93 3045.32 2731.2C3052.79 2735.47 3059.46 2742.4 3065.32 2752C3071.19 2761.07 3074.12 2773.6 3074.12 2789.6C3074.12 2794.93 3072.79 2804.27 3070.12 2817.6C3067.99 2830.93 3062.93 2845.07 3054.93 2860C3047.46 2874.93 3035.73 2887.2 3019.73 2896.8C3029.86 2901.07 3039.72 2903.2 3049.32 2903.2C3062.66 2903.2 3076.26 2899.2 3090.12 2891.2C3103.99 2882.67 3118.39 2868.53 3133.32 2848.8C3135.99 2845.6 3138.13 2844 3139.73 2844C3142.93 2844 3144.52 2846.13 3144.52 2850.4C3144.52 2855.2 3141.86 2861.33 3136.52 2868.8ZM3049.32 2779.2C3049.32 2769.6 3044.53 2760.8 3034.93 2752.8C3025.86 2744.27 3016.53 2740 3006.93 2740C2995.19 2740 2986.13 2745.6 2979.73 2756.8C2973.33 2767.47 2968.52 2781.87 2965.32 2800C2962.12 2817.6 2958.93 2836.8 2955.73 2857.6C2956.26 2858.13 2956.52 2858.4 2956.52 2858.4C2957.06 2858.4 2957.32 2858.4 2957.32 2858.4C2958.39 2858.4 2959.19 2858.13 2959.73 2857.6C2960.79 2857.07 2961.86 2856.8 2962.93 2856.8C2963.99 2856.8 2965.59 2857.07 2967.73 2857.6C2969.86 2858.13 2971.99 2859.73 2974.12 2862.4C2979.99 2867.2 2985.32 2871.2 2990.12 2874.4C2995.46 2877.6 2999.19 2879.2 3001.32 2879.2C3006.66 2879.2 3011.99 2876.27 3017.32 2870.4C3023.19 2864.53 3028.52 2857.33 3033.32 2848.8C3038.12 2840.27 3041.59 2832.53 3043.73 2825.6C3046.93 2816 3048.52 2806.67 3048.52 2797.6C3049.06 2788 3049.32 2781.87 3049.32 2779.2ZM2995.73 2892.8C2995.73 2892.8 2992.52 2891.73 2986.12 2889.6C2979.72 2887.47 2973.59 2884.53 2967.73 2880.8C2966.66 2880.27 2965.06 2880 2962.93 2880C2960.26 2880 2958.93 2882.13 2958.93 2886.4C2958.93 2888.53 2959.46 2890.93 2960.52 2893.6C2961.59 2895.73 2963.19 2897.33 2965.32 2898.4C2971.72 2900 2978.39 2899.47 2985.32 2896.8C2992.26 2894.13 2995.73 2892.8 2995.73 2892.8ZM2929.32 2908C2928.26 2906.93 2926.39 2906.13 2923.73 2905.6C2921.59 2904.53 2919.46 2903.47 2917.32 2902.4C2909.86 2928.53 2902.39 2952 2894.93 2972.8C2887.99 2993.6 2881.33 3014.4 2874.93 3035.2C2869.06 3056 2863.73 3080 2858.93 3107.2C2858.39 3110.93 2858.12 3114.13 2858.12 3116.8C2857.59 3120 2857.32 3122.67 2857.32 3124.8C2857.32 3131.73 2858.66 3135.2 2861.32 3135.2C2863.99 3135.2 2867.19 3132.8 2870.93 3128C2874.66 3123.73 2877.86 3119.2 2880.52 3114.4C2894.39 3093.07 2903.19 3075.47 2906.93 3061.6C2911.19 3047.73 2913.59 3034.67 2914.12 3022.4C2914.66 3010.67 2916.53 2997.07 2919.73 2981.6C2921.86 2970.93 2923.72 2960 2925.32 2948.8C2927.46 2938.13 2928.79 2928.8 2929.32 2920.8C2930.39 2912.8 2930.39 2908.53 2929.32 2908Z" fill="#8AD4EC"/>
<path d="M3360.52 2436C3361.59 2439.2 3362.12 2442.67 3362.12 2446.4C3362.12 2457.6 3359.45 2473.07 3354.12 2492.8C3349.32 2512.53 3343.45 2532.8 3336.52 2553.6C3329.59 2573.87 3323.45 2591.47 3318.12 2606.4C3301.59 2651.73 3285.85 2688.53 3270.92 2716.8C3256.52 2745.07 3243.72 2767.2 3232.52 2783.2C3221.32 2798.67 3212.52 2810.13 3206.12 2817.6C3199.72 2825.07 3196.52 2830.67 3196.52 2834.4C3200.25 2842.4 3203.45 2854.13 3206.12 2869.6C3208.79 2884.53 3210.39 2897.6 3210.92 2908.8C3215.19 2909.87 3220.52 2910.4 3226.92 2910.4C3232.25 2910.4 3237.85 2909.87 3243.72 2908.8C3249.59 2907.73 3255.19 2906.13 3260.52 2904C3277.59 2896.53 3291.72 2886.13 3302.92 2872.8C3314.12 2858.93 3322.12 2848.53 3326.92 2841.6C3329.05 2838.93 3331.19 2837.6 3333.32 2837.6C3335.99 2837.6 3337.85 2839.2 3338.92 2842.4C3339.99 2845.07 3339.72 2847.73 3338.12 2850.4C3327.45 2866.93 3316.52 2881.07 3305.32 2892.8C3294.12 2904.53 3281.32 2913.6 3266.92 2920C3251.99 2926.4 3239.45 2930.13 3229.32 2931.2C3219.19 2932.27 3214.12 2932.8 3214.12 2932.8C3213.05 2937.07 3211.99 2941.33 3210.92 2945.6C3210.39 2950.4 3209.32 2957.33 3207.72 2966.4C3206.12 2975.47 3203.72 2989.07 3200.52 3007.2C3193.59 3043.47 3185.05 3076.53 3174.92 3106.4C3164.79 3136.27 3147.19 3161.87 3122.12 3183.2C3118.92 3185.33 3115.99 3186.4 3113.32 3186.4C3107.99 3186.4 3102.39 3184.27 3096.52 3180C3090.65 3176.27 3086.92 3171.47 3085.32 3165.6C3083.72 3159.73 3082.39 3151.2 3081.32 3140C3080.25 3129.33 3079.45 3118.4 3078.92 3107.2C3078.39 3096 3078.12 3087.2 3078.12 3080.8C3078.12 3057.87 3081.85 3027.47 3089.32 2989.6C3096.79 2952.27 3107.19 2910.67 3120.52 2864.8C3133.85 2818.4 3149.85 2770.93 3168.52 2722.4C3187.19 2673.33 3207.72 2626.4 3230.12 2581.6C3238.12 2565.6 3247.19 2548.53 3257.32 2530.4C3267.99 2512.27 3278.65 2495.2 3289.32 2479.2C3300.52 2462.67 3311.19 2449.33 3321.32 2439.2C3331.45 2429.07 3339.99 2424 3346.92 2424C3353.32 2424 3357.85 2428 3360.52 2436ZM3330.92 2476C3324.52 2479.73 3317.59 2488.53 3310.12 2502.4C3303.19 2515.73 3296.25 2530.67 3289.32 2547.2C3282.39 2563.2 3275.72 2577.6 3269.32 2590.4C3254.92 2619.73 3240.25 2651.73 3225.32 2686.4C3210.92 2720.53 3196.79 2760.27 3182.92 2805.6C3188.79 2799.73 3196.79 2789.6 3206.92 2775.2C3217.05 2760.8 3227.72 2743.73 3238.92 2724C3250.12 2703.73 3261.05 2682.93 3271.72 2661.6C3282.92 2640.27 3292.25 2620 3299.72 2600.8C3306.12 2585.87 3311.99 2570.4 3317.32 2554.4C3322.65 2537.87 3326.92 2522.93 3330.12 2509.6C3333.32 2496.27 3334.92 2486.67 3334.92 2480.8C3334.92 2476 3333.59 2474.4 3330.92 2476ZM3184.52 2870.4C3183.45 2866.13 3181.85 2861.87 3179.72 2857.6C3178.12 2852.8 3175.19 2850.93 3170.92 2852C3167.72 2855.73 3165.05 2860 3162.92 2864.8C3161.32 2869.6 3160.52 2876.53 3160.52 2885.6C3160.52 2885.6 3162.12 2887.2 3165.32 2890.4C3169.05 2893.07 3173.59 2893.6 3178.92 2892C3180.52 2890.93 3182.12 2889.87 3183.72 2888.8C3185.32 2887.73 3186.12 2885.33 3186.12 2881.6C3186.12 2880 3186.12 2878.4 3186.12 2876.8C3186.12 2874.67 3185.59 2872.53 3184.52 2870.4ZM3187.72 2926.4C3187.72 2926.4 3186.65 2926.67 3184.52 2927.2C3182.39 2927.73 3179.72 2928 3176.52 2928C3172.25 2928 3167.45 2926.93 3162.12 2924.8C3156.79 2922.13 3153.05 2917.33 3150.92 2910.4C3146.65 2927.47 3143.45 2940 3141.32 2948C3139.19 2956 3137.59 2961.87 3136.52 2965.6C3135.45 2969.33 3134.39 2973.33 3133.32 2977.6C3132.79 2981.87 3131.72 2989.07 3130.12 2999.2C3128.52 3009.33 3125.85 3024.8 3122.12 3045.6C3119.99 3056.27 3118.12 3068.27 3116.52 3081.6C3114.92 3095.47 3114.12 3107.73 3114.12 3118.4C3114.12 3126.4 3114.65 3132.8 3115.72 3137.6C3117.32 3142.4 3119.45 3144.53 3122.12 3144C3125.32 3143.47 3128.52 3140 3131.72 3133.6C3135.45 3127.73 3139.19 3120.8 3142.92 3112.8C3146.65 3105.33 3150.12 3099.2 3153.32 3094.4C3158.12 3086.93 3161.59 3079.73 3163.72 3072.8C3166.39 3065.87 3168.79 3056 3170.92 3043.2C3173.59 3030.93 3177.32 3013.33 3182.12 2990.4C3183.72 2982.93 3184.79 2974.13 3185.32 2964C3186.39 2954.4 3186.92 2945.6 3186.92 2937.6C3187.45 2930.13 3187.72 2926.4 3187.72 2926.4Z" fill="#8AD4EC"/>
<path d="M3484.76 2780C3484.76 2791.2 3482.36 2805.87 3477.56 2824C3472.76 2842.13 3466.36 2859.2 3458.36 2875.2C3450.9 2891.73 3442.36 2904 3432.76 2912C3423.7 2919.47 3414.9 2924.8 3406.36 2928C3397.83 2930.67 3390.9 2933.33 3385.56 2936C3383.43 2936.53 3381.03 2937.07 3378.36 2937.6C3376.23 2938.67 3373.83 2939.2 3371.16 2939.2C3360.5 2939.2 3352.23 2936.27 3346.36 2930.4C3344.23 2928.27 3340.76 2926.13 3335.96 2924C3331.7 2921.87 3327.7 2918.13 3323.96 2912.8C3320.23 2907.47 3318.36 2898.67 3318.36 2886.4C3318.36 2873.6 3319.96 2861.33 3323.16 2849.6C3313.56 2838.4 3308.76 2826.13 3308.76 2812.8C3308.76 2804.8 3310.63 2797.07 3314.36 2789.6C3324.5 2770.4 3337.3 2755.47 3352.76 2744.8C3368.23 2734.13 3382.9 2726.67 3396.76 2722.4C3411.16 2718.13 3421.03 2716 3426.36 2716C3446.1 2716 3460.76 2722.4 3470.36 2735.2C3479.96 2748 3484.76 2762.93 3484.76 2780ZM3451.96 2784C3451.96 2771.73 3447.7 2761.6 3439.16 2753.6C3431.16 2745.6 3421.03 2741.6 3408.76 2741.6C3398.63 2741.6 3388.23 2744.8 3377.56 2751.2C3367.43 2757.07 3358.63 2764.53 3351.16 2773.6C3343.7 2782.67 3338.9 2791.47 3336.76 2800C3336.23 2803.2 3335.7 2806.13 3335.16 2808.8C3335.16 2811.47 3335.16 2814.13 3335.16 2816.8C3341.03 2804 3347.16 2793.33 3353.56 2784.8C3360.5 2776.27 3365.56 2770.93 3368.76 2768.8C3371.43 2766.67 3374.9 2765.6 3379.16 2765.6C3385.03 2765.6 3387.96 2767.2 3387.96 2770.4C3387.96 2772.53 3385.03 2776.53 3379.16 2782.4C3373.83 2787.73 3367.7 2794.93 3360.76 2804C3353.83 2812.53 3347.96 2823.2 3343.16 2836C3347.43 2841.33 3353.03 2845.33 3359.96 2848C3367.43 2850.13 3374.63 2851.2 3381.56 2851.2C3389.03 2851.2 3395.96 2849.87 3402.36 2847.2C3409.3 2844 3413.83 2839.73 3415.96 2834.4C3416.5 2832.8 3416.76 2831.47 3416.76 2830.4C3417.3 2828.8 3417.56 2827.47 3417.56 2826.4C3417.56 2821.07 3415.16 2817.87 3410.36 2816.8C3406.1 2815.2 3401.83 2814.67 3397.56 2815.2H3395.96C3390.1 2815.2 3387.16 2813.87 3387.16 2811.2C3387.16 2809.6 3387.7 2808 3388.76 2806.4C3390.36 2804.8 3391.7 2803.47 3392.76 2802.4C3395.96 2799.2 3399.43 2797.6 3403.16 2797.6C3408.5 2797.6 3414.36 2801.07 3420.76 2808C3426.63 2816 3429.56 2823.73 3429.56 2831.2C3429.56 2840.8 3424.76 2848.27 3415.16 2853.6C3406.1 2858.93 3395.96 2862.67 3384.76 2864.8C3373.56 2866.93 3365.03 2868 3359.16 2868C3350.63 2868 3343.7 2866.13 3338.36 2862.4C3337.83 2863.47 3337.56 2865.87 3337.56 2869.6C3337.56 2884.53 3341.56 2894.67 3349.56 2900C3357.56 2904.8 3364.23 2908.53 3369.56 2911.2C3372.76 2912.27 3375.43 2912.8 3377.56 2912.8C3385.03 2912.8 3392.76 2909.6 3400.76 2903.2C3409.3 2896.8 3416.76 2888 3423.16 2876.8C3427.96 2868.27 3432.5 2858.13 3436.76 2846.4C3441.03 2834.67 3444.5 2823.2 3447.16 2812C3450.36 2800.27 3451.96 2790.93 3451.96 2784Z" fill="#8AD4EC"/>
<path d="M3650.51 2656.8C3648.91 2661.07 3647.05 2665.6 3644.91 2670.4C3643.31 2675.2 3641.71 2679.73 3640.11 2684L3645.71 2684.8C3648.91 2685.33 3651.85 2685.87 3654.51 2686.4C3657.71 2686.4 3660.65 2686.4 3663.31 2686.4C3667.58 2686.4 3671.31 2686.13 3674.51 2685.6C3677.71 2684.53 3680.11 2683.73 3681.71 2683.2C3685.98 2682.13 3688.65 2680.8 3689.71 2679.2C3690.78 2677.6 3691.31 2676.8 3691.31 2676.8C3691.31 2674.67 3692.11 2672.53 3693.71 2670.4C3695.31 2667.73 3697.18 2666.4 3699.31 2666.4C3701.98 2666.4 3704.11 2668.8 3705.71 2673.6C3705.71 2673.6 3705.45 2676.27 3704.91 2681.6C3704.91 2686.93 3698.25 2692.27 3684.91 2697.6C3675.85 2701.33 3660.38 2703.73 3638.51 2704.8H3630.51C3627.31 2712.27 3623.85 2719.73 3620.11 2727.2C3616.91 2734.13 3613.45 2741.07 3609.71 2748C3598.51 2769.33 3588.91 2785.07 3580.91 2795.2C3573.45 2805.33 3567.58 2813.07 3563.31 2818.4C3559.05 2823.2 3556.11 2829.07 3554.51 2836C3553.98 2839.2 3553.45 2842.13 3552.91 2844.8C3552.91 2847.47 3552.91 2850.13 3552.91 2852.8C3552.91 2872.53 3558.51 2886.93 3569.71 2896C3581.45 2905.07 3592.65 2909.6 3603.31 2909.6C3615.58 2909.6 3627.85 2905.33 3640.11 2896.8C3652.38 2887.73 3662.51 2879.47 3670.51 2872C3676.91 2866.67 3681.71 2864 3684.91 2864C3687.05 2864 3688.11 2865.07 3688.11 2867.2C3688.11 2870.93 3685.18 2876.8 3679.31 2884.8C3676.11 2889.07 3670.78 2894.93 3663.31 2902.4C3655.85 2909.87 3646.51 2916.8 3635.31 2923.2C3624.11 2929.07 3611.58 2932 3597.71 2932C3569.98 2932 3551.31 2925.6 3541.71 2912.8C3532.65 2900 3528.11 2878.67 3528.11 2848.8C3528.11 2830.13 3529.45 2808.27 3532.11 2783.2C3535.31 2757.6 3539.85 2730.13 3545.71 2700.8L3532.11 2700C3525.18 2700 3519.85 2701.07 3516.11 2703.2C3512.91 2704.8 3510.25 2705.6 3508.11 2705.6C3502.78 2705.6 3500.11 2701.6 3500.11 2693.6C3500.11 2684.53 3502.51 2677.6 3507.31 2672.8C3511.05 2669.07 3517.45 2667.2 3526.51 2667.2C3530.78 2667.2 3535.05 2667.73 3539.31 2668.8C3543.58 2669.33 3548.11 2670.13 3552.91 2671.2L3557.71 2652.8L3570.51 2606.4C3571.58 2601.07 3572.65 2596.8 3573.71 2593.6C3574.78 2590.4 3576.11 2586.4 3577.71 2581.6C3586.78 2554.4 3596.65 2528.27 3607.31 2503.2C3617.98 2478.13 3633.45 2455.73 3653.71 2436C3657.45 2430.13 3662.51 2427.2 3668.91 2427.2C3673.71 2427.2 3677.98 2429.33 3681.71 2433.6C3685.45 2437.33 3687.05 2441.87 3686.51 2447.2C3686.51 2447.2 3686.25 2453.87 3685.71 2467.2C3685.18 2480.53 3684.11 2496.8 3682.51 2516C3680.91 2534.67 3678.51 2552.53 3675.31 2569.6C3673.71 2579.73 3671.31 2590.67 3668.11 2602.4C3665.45 2613.6 3661.98 2625.07 3657.71 2636.8L3650.51 2656.8ZM3585.71 2676C3589.45 2677.07 3592.91 2677.87 3596.11 2678.4C3599.85 2678.93 3603.85 2679.73 3608.11 2680.8L3615.31 2681.6C3617.45 2677.87 3619.31 2673.87 3620.91 2669.6C3622.51 2664.8 3624.11 2660.53 3625.71 2656.8L3634.51 2635.2C3636.65 2629.33 3638.51 2624.27 3640.11 2620C3641.71 2615.2 3643.31 2610.93 3644.91 2607.2C3650.78 2587.47 3655.58 2567.2 3659.31 2546.4C3663.05 2525.6 3664.91 2509.33 3664.91 2497.6C3664.91 2488 3663.58 2482.4 3660.91 2480.8C3657.71 2480.27 3652.65 2486.4 3645.71 2499.2C3638.78 2512 3631.31 2528.8 3623.31 2549.6C3615.31 2570.4 3607.58 2592.53 3600.11 2616C3599.58 2618.13 3599.05 2620.27 3598.51 2622.4C3597.98 2624 3597.45 2625.87 3596.91 2628L3590.51 2656L3585.71 2676ZM3565.71 2783.2C3571.58 2775.73 3577.98 2765.07 3584.91 2751.2C3591.85 2736.8 3598.78 2721.33 3605.71 2704.8H3599.31C3596.11 2704.8 3592.65 2704.8 3588.91 2704.8C3585.71 2704.8 3582.78 2704.53 3580.11 2704C3576.91 2717.87 3573.98 2731.73 3571.31 2745.6C3569.18 2759.47 3567.31 2772 3565.71 2783.2Z" fill="#8AD4EC"/>
<path d="M3859.99 2832.8C3853.05 2844.53 3844.25 2857.33 3833.59 2871.2C3822.92 2884.53 3811.72 2896 3799.99 2905.6C3788.79 2915.2 3778.12 2920 3767.99 2920C3751.45 2920 3738.39 2919.2 3728.79 2917.6C3719.72 2915.47 3712.25 2912.53 3706.39 2908.8C3696.25 2901.87 3687.99 2892.8 3681.59 2881.6C3675.19 2870.4 3671.45 2858.93 3670.39 2847.2C3669.85 2844 3669.59 2840.8 3669.59 2837.6C3669.59 2834.4 3669.59 2831.47 3669.59 2828.8C3669.59 2797.33 3675.72 2769.6 3687.99 2745.6C3700.25 2721.6 3717.59 2707.2 3739.99 2702.4C3746.92 2701.33 3752.25 2704.27 3755.99 2711.2C3759.72 2717.6 3761.59 2726.4 3761.59 2737.6C3761.59 2754.67 3757.05 2773.07 3747.99 2792.8C3744.25 2800.8 3740.25 2808.53 3735.99 2816C3732.25 2822.93 3729.05 2828.53 3726.39 2832.8C3719.45 2842.93 3714.12 2849.87 3710.39 2853.6C3707.19 2856.8 3705.59 2860 3705.59 2863.2C3705.59 2871.73 3710.92 2880 3721.59 2888C3732.25 2896 3748.79 2900 3771.19 2900C3779.72 2900 3788.52 2896.27 3797.59 2888.8C3806.65 2881.33 3815.45 2872 3823.99 2860.8C3833.05 2849.6 3841.05 2838.4 3847.99 2827.2C3851.19 2821.87 3854.12 2819.2 3856.79 2819.2C3859.99 2819.2 3861.59 2821.6 3861.59 2826.4C3861.59 2828.53 3861.05 2830.67 3859.99 2832.8ZM3739.99 2732C3737.85 2728.8 3733.32 2729.6 3726.39 2734.4C3719.99 2738.67 3714.12 2748.8 3708.79 2764.8C3705.05 2776.53 3703.19 2790.13 3703.19 2805.6C3703.19 2809.87 3703.19 2814.13 3703.19 2818.4C3703.72 2822.67 3704.25 2826.93 3704.79 2831.2C3713.85 2815.73 3720.25 2804.27 3723.99 2796.8C3728.25 2788.8 3731.45 2780.53 3733.59 2772C3734.65 2767.73 3736.25 2762.4 3738.39 2756C3741.05 2749.6 3742.39 2744 3742.39 2739.2C3742.39 2736 3741.59 2733.6 3739.99 2732Z" fill="#8AD4EC"/>
</g>
<defs>
<clipPath id="clip0_2_14">
<rect width="3862" height="3862" fill="white"/>
</clipPath>
</defs>
</svg>
