<svg width="16" height="16" viewBox="0 0 16 16" fill="none" xmlns="http://www.w3.org/2000/svg">
<g clip-path="url(#clip0_4_32)">
<g opacity="0.5">
<path d="M3.83404 7.06503C3.11362 6.1647 2.57401 5.9012 1.87648 5.96364C1.17895 6.02608 1.12445 6.65858 0.988717 7.25859C0.810141 8.048 1.09175 8.59713 1.56841 9.24757C2.03542 9.88484 2.45458 10.4075 3.23784 10.3757C3.88562 10.3494 4.49343 9.88759 4.65476 9.50017C4.81609 9.11275 4.55446 7.96537 3.83404 7.06503Z" fill="#8D91FA"/>
<path d="M11.0439 7.4156C10.9243 8.56786 11.2183 9.08523 11.7552 9.54032C12.292 9.99541 12.7935 9.71381 13.3087 9.38669C13.9864 8.9563 14.1986 8.27263 14.3159 7.47154C14.4309 6.68667 14.2944 5.75759 13.7183 5.21948C13.2419 4.77445 12.9837 4.97101 12.599 5.1295C12.2143 5.28798 11.1634 6.26334 11.0439 7.4156Z" fill="#8D91FA"/>
<path d="M4.03157 13.4265C3.91201 14.5787 4.04387 14.7889 4.61849 15.1256C5.1931 15.4623 5.55857 15.1999 6.49097 14.8058C7.35241 14.4416 7.73552 13.896 8.60335 13.7477C9.89248 13.5276 11.0166 14.1187 12.0765 13.7656C12.6412 13.5774 12.7737 13.2058 12.8144 12.9273C12.8766 12.5031 12.1005 10.9059 11.2501 9.98568C10.527 9.20329 9.60498 8.53657 9.31063 8.3264C8.76833 7.93919 8.26733 7.87884 7.56058 8.0255C6.88938 8.16479 6.63072 8.37924 6.12053 8.74003C5.61034 9.10082 4.15112 12.2742 4.03157 13.4265Z" fill="#8D91FA"/>
<path d="M6.85151 3.46082C6.54853 2.34246 6.25595 1.71154 5.13421 1.51244C4.01248 1.31334 3.8735 1.91834 3.58897 2.46235C3.21463 3.17807 3.49999 4.02831 3.79409 4.78145C4.08224 5.51935 4.85999 6.47978 5.6247 6.65425C6.25713 6.79854 6.53935 6.13958 6.79424 5.80763C7.04914 5.47567 7.15448 4.57918 6.85151 3.46082Z" fill="#8D91FA"/>
<path d="M11.0599 3.11318C11.0533 1.95356 11.0999 1.37727 10.0673 0.891087C9.03474 0.404903 8.58937 1.06714 8.17543 1.51807C7.63083 2.11134 7.68906 3.00736 7.78056 3.81189C7.87021 4.60013 7.98617 5.81978 8.68021 6.18863C9.25419 6.49368 9.91265 5.93556 10.2437 5.68169C10.5748 5.42782 11.0666 4.27281 11.0599 3.11318Z" fill="#8D91FA"/>
</g>
</g>
<defs>
<clipPath id="clip0_4_32">
<rect width="16" height="16" fill="white"/>
</clipPath>
</defs>
</svg>
